<?xml version="1.0" encoding="UTF-8"?>
<svg xmlns="http://www.w3.org/2000/svg" xmlns:xlink="http://www.w3.org/1999/xlink" viewBox="0 0 64 64" width="64px" height="64px">
<defs>
<radialGradient id="radial0" gradientUnits="userSpaceOnUse" cx="88.6875" cy="86" fx="88.6875" fy="86" r="76.886688" gradientTransform="matrix(0.372093,0,0,0.372093,0,0)">
<stop offset="0" style="stop-color:rgb(87.450981%,38.82353%,90.196079%);stop-opacity:1;"/>
<stop offset="0" style="stop-color:rgb(94.901961%,87.843138%,73.333335%);stop-opacity:1;"/>
<stop offset="0.011" style="stop-color:rgb(94.901961%,87.843138%,73.725492%);stop-opacity:1;"/>
<stop offset="0.362" style="stop-color:rgb(97.647059%,92.941177%,82.352942%);stop-opacity:1;"/>
<stop offset="0.699" style="stop-color:rgb(99.607843%,95.686275%,87.450981%);stop-opacity:1;"/>
<stop offset="1" style="stop-color:rgb(100%,96.862745%,89.411765%);stop-opacity:1;"/>
</radialGradient>
<linearGradient id="linear0" gradientUnits="userSpaceOnUse" x1="85.98925" y1="142.432114" x2="85.98925" y2="29.565189" gradientTransform="matrix(0.372093,0,0,0.372093,0,0)">
<stop offset="0" style="stop-color:rgb(100%,38.82353%,30.19608%);stop-opacity:1;"/>
<stop offset="0.204" style="stop-color:rgb(99.607843%,39.215687%,39.215687%);stop-opacity:1;"/>
<stop offset="0.521" style="stop-color:rgb(98.823529%,39.607844%,50.588238%);stop-opacity:1;"/>
<stop offset="0.794" style="stop-color:rgb(98.039216%,40.000001%,58.039218%);stop-opacity:1;"/>
<stop offset="0.989" style="stop-color:rgb(98.039216%,40.000001%,60.392159%);stop-opacity:1;"/>
<stop offset="1" style="stop-color:rgb(98.039216%,40.000001%,60.392159%);stop-opacity:1;"/>
</linearGradient>
<linearGradient id="linear1" gradientUnits="userSpaceOnUse" x1="85.983879" y1="142.445557" x2="85.983879" y2="29.55444" gradientTransform="matrix(0.372093,0,0,0.372093,0,0)">
<stop offset="0" style="stop-color:rgb(100%,38.82353%,30.19608%);stop-opacity:1;"/>
<stop offset="0.204" style="stop-color:rgb(99.607843%,39.215687%,39.215687%);stop-opacity:1;"/>
<stop offset="0.521" style="stop-color:rgb(98.823529%,39.607844%,50.588238%);stop-opacity:1;"/>
<stop offset="0.794" style="stop-color:rgb(98.039216%,40.000001%,58.039218%);stop-opacity:1;"/>
<stop offset="0.989" style="stop-color:rgb(98.039216%,40.000001%,60.392159%);stop-opacity:1;"/>
<stop offset="1" style="stop-color:rgb(98.039216%,40.000001%,60.392159%);stop-opacity:1;"/>
</linearGradient>
</defs>
<g id="surface101721092">
<path style=" stroke:none;fill-rule:nonzero;fill:url(#radial0);" d="M 53 34 L 58.242188 34 C 61.109375 34 63.683594 31.917969 63.972656 29.0625 C 64.304688 25.789062 61.710938 23 58.5 23 L 46.171875 23 C 44.546875 23 43.089844 21.785156 43.003906 20.160156 C 42.914062 18.429688 44.289062 17 46 17 L 48.242188 17 C 51.109375 17 53.683594 14.917969 53.972656 12.0625 C 54.304688 8.789062 51.710938 6 48.5 6 L 10.5 6 C 7.460938 6 5 8.460938 5 11.5 C 5 14.539062 7.460938 17 10.5 17 L 14 17 C 15.105469 17 16 17.894531 16 19 C 16 20.105469 15.105469 21 14 21 L 6.710938 21 C 4.363281 21 2.257812 22.703125 2.023438 25.039062 C 1.753906 27.71875 3.871094 30 6.5 30 L 12.828125 30 C 14.453125 30 15.910156 31.214844 15.996094 32.839844 C 16.085938 34.570312 14.710938 36 13 36 L 9.710938 36 C 7.363281 36 5.257812 37.703125 5.023438 40.039062 C 4.753906 42.71875 6.871094 45 9.5 45 L 13.894531 45 C 14.890625 45 15.8125 45.679688 15.972656 46.664062 C 16.175781 47.917969 15.214844 49 14 49 L 9.710938 49 C 7.363281 49 5.257812 50.703125 5.023438 53.039062 C 4.753906 55.71875 6.871094 58 9.5 58 L 31.5 58 C 31.585938 58 31.664062 57.980469 31.75 57.976562 C 31.835938 57.980469 31.914062 58 32 58 L 40.386719 58 C 42.054688 58 43.582031 56.878906 43.921875 55.242188 C 44.390625 52.996094 42.667969 51 40.5 51 L 38.105469 51 C 37.109375 51 36.1875 50.320312 36.027344 49.335938 C 35.824219 48.082031 36.785156 47 38 47 L 56.289062 47 C 58.636719 47 60.742188 45.296875 60.976562 42.960938 C 61.246094 40.28125 59.128906 38 56.5 38 L 53.105469 38 C 52.109375 38 51.1875 37.320312 51.027344 36.335938 C 50.824219 35.082031 51.785156 34 53 34 Z M 53 34 "/>
<path style=" stroke:none;fill-rule:nonzero;fill:url(#linear0);" d="M 51.933594 12.058594 L 51.9375 12.0625 C 53.347656 13.472656 53.351562 15.761719 51.9375 17.175781 L 17.167969 51.9375 C 15.753906 53.351562 13.464844 53.351562 12.054688 51.9375 C 10.644531 50.527344 10.644531 48.238281 12.054688 46.824219 L 46.820312 12.058594 C 48.234375 10.648438 50.519531 10.648438 51.933594 12.058594 Z M 51.933594 12.058594 "/>
<path style=" stroke:none;fill-rule:nonzero;fill:url(#linear1);" d="M 51.933594 51.945312 C 50.519531 53.355469 48.230469 53.355469 46.820312 51.945312 L 12.054688 17.167969 C 10.644531 15.757812 10.644531 13.46875 12.054688 12.054688 C 13.464844 10.644531 15.753906 10.644531 17.167969 12.054688 L 51.933594 46.832031 C 53.34375 48.242188 53.34375 50.53125 51.933594 51.945312 Z M 51.933594 51.945312 "/>
</g>
</svg>
