 <!DOCTYPE svg PUBLIC "-//W3C//DTD SVG 1.1//EN" "http://www.w3.org/Graphics/SVG/1.1/DTD/svg11.dtd">
<svg id="fd7b8986-3bc1-4de4-8bdf-59f0f44b8e5a" data-name="Layer 1" xmlns="http://www.w3.org/2000/svg" width="865.76" height="682.89" viewBox="0 0 865.76 682.89">
<defs>
<style xmlns="http://www.w3.org/1999/xhtml">*, ::after, ::before { box-sizing: border-box; }
img, svg { vertical-align: middle; }
</style>
<style xmlns="http://www.w3.org/1999/xhtml">*, body, html { }
img, svg { max-width: 100%; }
</style>
</defs>
<path d="M469.22,168.87s39.74,39.74,109.64,57.4c0,0,124.37,33.55,142,93.17,0,0,47.84,94.46-30.9,188.67,0,0-110.61,111.94-327.9,93.82-2.38-.2-4.78-.32-7.18-.34-18.78-.21-118.73-4.9-199-79.42A198,198,0,0,1,93.1,384c-2.67-75.66,9.3-196.68,102.36-256.3C195.46,127.66,332.34,25.37,469.22,168.87Z" fill="#d600f2" data-primary="true"/>
<path d="M469.22,168.87s39.74,39.74,109.64,57.4c0,0,124.37,33.55,142,93.17,0,0,47.84,94.46-30.9,188.67,0,0-110.61,111.94-327.9,93.82-2.38-.2-4.78-.32-7.18-.34-18.78-.21-118.73-4.9-199-79.42A198,198,0,0,1,93.1,384c-2.67-75.66,9.3-196.68,102.36-256.3C195.46,127.66,332.34,25.37,469.22,168.87Z" fill="#fff" opacity="0.7"/>
<path d="M243.43,388.91a15,15,0,0,1-6.14,8.23c-.49.33-1,.67-1.59,1,0,0-2.09-1.27-5.44-3.51A44.64,44.64,0,0,0,216.42,388s-6.17-16.82,14.49-13.29c0,0,10.74,1.57,12.69,8.68A10,10,0,0,1,243.43,388.91Z" fill="#5e5e5e" data-secondary="true"/>
<path d="M243.43,388.91a15,15,0,0,1-6.14,8.23c-.49.33-1,.67-1.59,1,0,0-2.32-1.64-5.67-3.88,4.25-1.65,11.83-5.43,13.57-10.85A10,10,0,0,1,243.43,388.91Z" opacity="0.2"/>
<path d="M812.81,564.87l-136.72-6L406.52,549c-21-2.14-182.78-6-182.78-6l-115.07-1.93A302.25,302.25,0,0,1,53,540l57.76-40L120,493.6,639.43,518l117.93,15.25c2,1.11,5.23,2.94,9.18,5.18C783.32,548,812.81,564.87,812.81,564.87Z" fill="#d600f2" data-primary="true"/>
<path d="M766.54,538.45c-8.65,7.94-117.44,3.4-117.44,3.4-24.55,6.61-119.47,0-119.47,0L401.56,531.46l-138.32-7.08-94.87-6c-56.19-5-57.66-18.4-57.66-18.4L120,493.6,639.43,518l117.93,15.25C759.35,534.38,762.59,536.21,766.54,538.45Z" fill="#fff" opacity="0.7"/>
<path d="M280.77,480.46c0,10.06-8.77,19-22.27,24.46a77.12,77.12,0,0,1-16,4.48,93.56,93.56,0,0,1-15.91,1.33c-29.92,0-54.17-13.55-54.17-30.27,0-15.94,22.07-29,50.08-30.18,1.35-.06,2.71-.09,4.09-.09C256.52,450.19,280.77,463.75,280.77,480.46Z" fill="#d600f2" data-primary="true"/>
<path d="M280.77,480.46c0,13.63-16.11,25.15-38.26,28.94l-13-7.35c18.78-25.87-5.34-50.14-7-51.77,1.35-.06,2.71-.09,4.09-.09C256.52,450.19,280.77,463.75,280.77,480.46Z" opacity="0.2"/>
<path d="M280.77,480.46c0,10.06-8.77,19-22.27,24.46,4.68-15.88,1.56-25.13,1.56-25.13-1-9.3-25.75-11.1-25.75-11.1a51.29,51.29,0,0,0-11.8-18.41c1.35-.06,2.71-.09,4.09-.09C256.52,450.19,280.77,463.75,280.77,480.46Z" opacity="0.2"/>
<path d="M501.21,449.54,486,450.88l-97.47,8.57L323.19,442.6,394,418.42s16.17,4.29,38.16-3.63l35.42-13s25.7-7.72,39.13-.3C517.79,432.09,501.21,449.54,501.21,449.54Z" fill="#5e5e5e" data-secondary="true"/>
<path d="M339.08,446.7s20.68,2.84,41.83-4.76L413,430.37l-40,25.08Z" opacity="0.2"/>
<path d="M501.21,449.54,486,450.88c14.81-20.47,9-38,9-38-5.29-14.21-60.15,5.56-60.15,5.56-38.67,13.83-40.8,0-40.8,0s16.17,4.29,38.16-3.63l35.42-13s25.7-7.72,39.13-.3C517.79,432.09,501.21,449.54,501.21,449.54Z" opacity="0.2"/>
<path d="M506.69,401.49c-13.43-7.42-39.13.3-39.13.3l-35.42,13c-22,7.92-38.16,3.63-38.16,3.63-.83-5.95-7.06-18.14-7.06-18.14-1.66,5.68-5.82,0-5.82,0-3.14-3.34-8.84-3.59-11.69-3.48a12.73,12.73,0,0,0-2.53.42c-4.21,1-.89-8.43-.89-8.43,2.71-8.43,5.28-18.29,5.28-18.29-13.57-10-16-20.43-16-20.43l-5-16.57-.71,16.86c.43,9.85-9,39.43-9,39.43-.5,2.41-1.75,2.91-3.15,2.55-1.87-.47-4-2.48-5.05-3.56a4.82,4.82,0,0,0-1.87-1.25c-3.37-1.14-7.49,0-9.62.81a1.15,1.15,0,0,1-1.55-1c0-.88,0-1.89.08-3,.26-4.81,1.13-10.83,1.39-12.51,0-.32.09-.65.12-1,.37-4,1-6.18,1.65-7.34a17.43,17.43,0,0,0,2.25-7.74l2.28-56.06c.25-10.14,8.5-11.11,8.5-11.11,9.18,0,12.79-3.4,12.79-3.4l6.41,1.72,17-18c-.14.26-2.12,3.83,1.33-1.55,3.57-5.57,24.22-.65,24.22-.65,28,13.94,33.07,37.65,33.07,37.65l5.48,11.32c1.66,3.42,3.05,6.94,4.46,10.47,3.46,8.7,12.18,16.64,18.45,21.51a179.65,179.65,0,0,1,20.67,18.6C499.7,387.67,506.45,401,506.69,401.49Z" fill="#d600f2" data-primary="true"/>
<path d="M352.4,281.42a19.1,19.1,0,0,1-4.73,4.27c-12.38,7.84-31.63-.37-43-18.32a51.5,51.5,0,0,1-7.54-19.62c-1.77-11.59,1.41-22,9.37-27.08,12.38-7.83,31.63.37,43,18.32C359.19,254.3,360,271.75,352.4,281.42Z" fill="#f9b499"/>
<path d="M352.4,281.42h0c1.72-8.69-1.26-18.79-1.26-18.79-3.81-14.63-35.55-24-35.55-24-16.81-4.2-18.42,9.16-18.42,9.16h0c-1.77-11.59,1.41-22,9.37-27.08,12.38-7.83,31.63.37,43,18.32C359.19,254.3,360,271.75,352.4,281.42Z" fill="#f7a48b"/>
<path d="M373.48,284.52l-7,25.77c-3.88,20-7.92.93-7.92.93-2.63-11.17-10.19-26-10.19-26,11.4-8.64,8.83-25.39,8.83-25.39l4.69,3.32,3.52,2.5a9.36,9.36,0,0,0,6,2.08,4.37,4.37,0,0,0,1.67-.36C378.06,272.86,373.48,284.52,373.48,284.52Z" fill="#f9b499"/>
<path d="M373.48,284.52l-7,25.77c-3.88,20-7.92.93-7.92.93-2.63-11.17-10.19-26-10.19-26,11.18-8.64,8.83-25.39,8.83-25.39l4.69,3.32s-1.1,10.48-6,17.94a8.77,8.77,0,0,0-1.44,4.22,38.79,38.79,0,0,0,3.86,19.25s4.27,6.67,7.38-3.11l5.74-19.25s2.17-8.27,0-14.46h0a4.37,4.37,0,0,0,1.67-.36C378.06,272.86,373.48,284.52,373.48,284.52Z" fill="#f7a48b"/>
<path d="M349.56,350.36c.43,9.85-9,39.43-9,39.43-1.16,5.58-6.3.94-8.17-1a4.9,4.9,0,0,0-1.95-1.29c-3.37-1.12-7.46,0-9.58.82a1.14,1.14,0,0,1-1.54-1c0-.88,0-1.89.08-3,1.4.38,18.68,4.64,22.6-13.91,0,0,6.58-36.93-3.59-58.24,0,0,9.6,8.91,11.86,21.31Z" opacity="0.2"/>
<path d="M357.52,355.38s8.41,4.08,13.12-13.24c0,0,9.91-49.54,17.85-58.46,0,0-7.69,23.8-10.41,47.84l-6.81,39S360.66,363.63,357.52,355.38Z" opacity="0.2"/>
<path d="M386.92,400.28s21.64-70,23.87-84.13a167.3,167.3,0,0,1-6.94,55.22l-13.21,36.91Z" opacity="0.2"/>
<path d="M310.08,496.14s30.33-4.08,35.78,12.26" fill="none" stroke="#ed1c24" stroke-miterlimit="10" stroke-width="0.5"/>
<path d="M361.76,517.5c-1.15,1.29-4.1,2.4-7.4,3.28l-.06,0a112.26,112.26,0,0,1-12.44,2.4c-18.17,3.26-31.78-1.27-31.78-1.27-9.42-1.74-41.81-4.55-41.81-4.55L262,498.43l8.13-.22,41.5-1.12Z" fill="#f9b499"/>
<path d="M354.36,520.78l-.06,0a112.26,112.26,0,0,1-12.44,2.4c-18.17,3.26-31.78-1.27-31.78-1.27-9.42-1.74-41.81-4.55-41.81-4.55L262,498.43l8.13-.22c1.57,3.76,8.39,15.84,31.92,18Z" fill="#f7a48b"/>
<path d="M187.84,465l44.29-1.29a28.39,28.39,0,0,1,2.63,6.31c-28.1,26-50.31-5.08-50.31-5.08A9.19,9.19,0,0,1,187.84,465Z" fill="#fff" opacity="0.2"/>
<path d="M628.7,502.05v29.14c.85,8.48-23.75,5.1-23.75,5.1H566.34C535,536.7,394,526.52,394,526.52c-9.07,0-5-4.59-5-4.59,29.15-9,12.57-61.14,12.57-61.14l-13.08-1.34A31,31,0,0,1,399,450.24c20.45-11.74,55.84-10.92,55.84-10.92,44.51,4.1,86,27.58,98.19,35a44.5,44.5,0,0,0,8.18,3.91l9.36,3.35a42.85,42.85,0,0,0,12.57,2.49c29.28,1.24,37.11,7,37.11,7C630.38,493.8,628.7,502.05,628.7,502.05Z" fill="#d600f2" data-primary="true"/>
<path d="M628.68,531.19c.85,8.48-23.75,5.1-23.75,5.1H566.34C535,536.7,394,526.52,394,526.52c-9.07,0-5-4.59-5-4.59,27.87-9.79,12.57-61.14,12.57-61.14l-13.08-1.34A31,31,0,0,1,399,450.24s20.94,1.9,15.63,31.58c0,0-5.94,23.11,31.89,32.18,0,0,64.52,13.35,137.66,4.43l44.56-2.79Z" opacity="0.2"/>
<path d="M752.86,534.84l-124.18-3.65,0-29.14c.46-1.56-.35-4.22-.35-4.22A18.63,18.63,0,0,1,636,498c13.1,2.56,31.45,13.9,31.45,13.9L681.89,517c12.44,4.24,22.34-5.66,22.34-5.66C711,506,719.78,517,719.78,517c4,7.92,17.25,5.65,17.25,5.65a29,29,0,0,1,13.73,3.76,19.87,19.87,0,0,1,3.51,2.47C762.19,534.84,752.86,534.84,752.86,534.84Z" fill="#f9b499"/>
<path d="M752.86,534.84l-124.18-3.65,0-29.14c.46-1.56-.35-4.22-.35-4.22A18.63,18.63,0,0,1,636,498c1.07,2.93,2.13,7.8,2.65,15.88,0,0-1,11.46,16.54,13.68,0,0,42.31,4.14,69,3.18,0,0,16.91-1.45,26.52-4.34a19.87,19.87,0,0,1,3.51,2.47C762.19,534.84,752.86,534.84,752.86,534.84Z" fill="#f7a48b"/>
<path d="M397.35,266.71c-23.79-4.28-24.22.65-24.22.65-3,1.86-7.71-1.72-7.71-1.72l-6.86-4.93c-8.36-4.92-4.19-12-4.19-12l-10.26-5c-2.4,4.76-16.67-3.12-21.3-5.84h0l-1.42-.86c-7.71-5.46-22.71-6.51-22.71-6.51a29,29,0,0,0-1.5,17.28c-29-13.17,11.27-31.12,11.27-31.12,38.33-16.85,55.71,13.84,55.71,13.84,4.94,8.08,19.21,22.57,27.35,30.55C395,264.48,397.35,266.71,397.35,266.71Z" fill="#5e5e5e" data-secondary="true"/>
<path d="M391.48,261c3.5,3.45,5.87,5.68,5.87,5.68-23.79-4.28-24.22.65-24.22.65-3.28,1.78-7.71-1.72-7.71-1.72l-6.86-4.93c-8.36-4.92-4.19-12-4.19-12l-10.26-5c-2.4,4.76-16.67-3.12-21.3-5.84.64.19,11.38,3.28,19.19.74,0,0,11.87-4.85,17.78,5.2,0,0,9.73,14.47,31.68,17.23Z" opacity="0.2"/>
<ellipse cx="349.33" cy="245.89" rx="5.46" ry="7.29" fill="#f9b499"/>
<circle cx="349.57" cy="244.95" r="2.81" fill="#f7a48b"/>
<path d="M183.55,456.58S171.31,464.89,151,471.9c0,0-42.78,15.81-28.11,29,0,0,21.26,13.92,67.71,10.38,0,0,21.27-.11,35.93,2.09l34,4.89s9.05,1,9.54-2c0,0,1.95-1.72,0-5,0,0,3.66-4-4.4-9.24l-10.52-9a9.09,9.09,0,0,0-10.51.74l-19.06,6.35-21.76-7.58s-19.41-9.87-27.54-10.72a1.13,1.13,0,0,1-1-1.16l.34-7.13a5.1,5.1,0,0,1,.73-2.4c1.49-2.5,5.43-7.77,11.5-6.23A29.77,29.77,0,0,1,183.55,456.58Z" fill="#f9b499"/>
<path d="M256.8,500a41.05,41.05,0,0,1,12,4.52,37.59,37.59,0,0,1-6.16-1.79A37,37,0,0,1,256.8,500Z" fill="#f7a48b"/>
<path d="M255.44,504.92a64.54,64.54,0,0,1,14.63,6.37,56.14,56.14,0,0,1-7.52-2.72A57.46,57.46,0,0,1,255.44,504.92Z" fill="#f7a48b"/>
<path d="M270.07,515.64a55,55,0,0,1-14-4.91,47.57,47.57,0,0,1,7.17,2A48.82,48.82,0,0,1,270.07,515.64Z" fill="#f7a48b"/>
<path d="M389,521.93l-27.23-4.43-50.15-20.41-48.37,1.34a46.16,46.16,0,0,0-1.85-22.27,9,9,0,0,0-1.66-2.91c-7.55-8.74-26.15-11.83-26.15-11.83-12.7,20.74-26.75,16.28-26.75,16.28-19-4-23.63-22.25-23.63-22.25a80.72,80.72,0,0,0-8.92-18.62,16.31,16.31,0,0,1-3.12-8,26.39,26.39,0,0,1-.09-5.52,14.81,14.81,0,0,1,4.84-9.77c16.31-14.78,37.14-.52,44.27,5.25a23,23,0,0,0,6.16,3.58L243,428.86l2.55,2.75,7.27,7.82c6.32,4.71,17.89,2.35,17.89,2.35,9.75-2.78,52.49.82,52.49.82l65.29,16.85,13.08,1.33c4.57,9.86,4.57,25.58,4.57,25.58C409.56,516.5,389,521.93,389,521.93Z" fill="#f9b499"/>
<path d="M276.21,440.83s-.85,8.59,19.81,5.42a53.55,53.55,0,0,1,9.71-.22,14.39,14.39,0,0,1,9.58,4.93c1.6,1.81,4.12,3.74,6.65,1.93l-1.81-20.71-.83-3.32Z" fill="#f2927c"/>
<path d="M243,428.86s.26,5.47-4.44,8c0,0,6.25.82,8.76-3.33Z" fill="#f7a48b"/>
<path d="M397.76,516.6a23.72,23.72,0,0,1-8.77,5.33l-27.23-4.43c19.08-14.49-34-44.8-35.41-45.6l0,0c7.45-1.68,56,25.47,56,25.47,18.26,6.73,11.68-37.13,11.68-37.13l7.58.57c4.6,10,4.57,25.57,4.57,25.57C408.39,502.54,403.06,511.65,397.76,516.6Z" fill="#f7a48b"/>
<path d="M397.76,516.6a23.72,23.72,0,0,1-8.77,5.33l-27.23-4.43c19.08-14.49-34-44.8-35.41-45.6,1.16.49,34.06,14.81,40.25,32.06a16.65,16.65,0,0,0,9.32,9.83,14.6,14.6,0,0,0,5.9,1.1l15.86,1.68Z" fill="#f2927c"/>
<path d="M245.54,431.61,243,428.86,222.7,421s-26.79-25.55-46.79-7.42a14.81,14.81,0,0,0-4.84,9.77,26.39,26.39,0,0,0,.09,5.52,24.25,24.25,0,0,1-5.58-12.71c-.68-7,2.37-15.8,16.78-23.69,0,0,6-4.21,23.8-5.21a38.46,38.46,0,0,1,22.42,5.68,46.91,46.91,0,0,1,13.38,12C246.83,411.71,249.37,420.54,245.54,431.61Z" fill="#5e5e5e" data-secondary="true"/>
<path d="M245.54,431.61,243,428.86,222.7,421s-26.79-25.55-46.79-7.42a14.81,14.81,0,0,0-4.84,9.77,26.39,26.39,0,0,0,.09,5.52,24.25,24.25,0,0,1-5.58-12.71c2.55-6.64,9.54-17.07,27.94-14.84,0,0,15.32,1.61,25,6.77,0,0,15.08,7.28,23.44-3.13C246.83,411.71,249.37,420.54,245.54,431.61Z" opacity="0.2"/>
<path d="M330.54,417.64c-2,4.55-1.58,11.22-1.58,11.22,1,8.82-1.92,11.17-1.92,11.17a7.67,7.67,0,0,0-1.42,1.55,9.28,9.28,0,0,0-1.55,6.3,13.84,13.84,0,0,1,0,3.77,1.61,1.61,0,0,1-2.07,1.24c-3.69-1.28-5.16-5.1-5.73-8.37h0a23.81,23.81,0,0,1-.32-5.19c-3.16,3.35-14.76,4.74-19.79,5.2-1.45.13-2.36.18-2.36.18-14.72,1.19-15.08-4.55-15.08-4.55-4.07-4.55,27.65-13.41,27.65-13.41,8.86-2.75,9.94-13.77,9.94-13.77l3.05-25.68a1.15,1.15,0,0,0,1.55,1c2.13-.78,6.25-1.95,9.62-.81a4.82,4.82,0,0,1,1.87,1.25c1.05,1.08,3.18,3.09,5.05,3.56Z" fill="#f9b499"/>
<path d="M319.32,387.29l-.5,4.27s13-1.61,12.93,6.71l-.18,15.57,5.84-21.5s-2.05-.47-5-3.53c0,0-2.49-3.67-11.52-.47C320.87,388.34,319.83,388.83,319.32,387.29Z" fill="#f7a48b"/>
<path d="M278.68,440.15a75.56,75.56,0,0,1,8.49-3.79A77.37,77.37,0,0,1,296,433.5a86.71,86.71,0,0,1-17.34,6.65Z" fill="#f7a48b"/>
<path d="M282,443.58a76,76,0,0,1,16.57-5.49A76.48,76.48,0,0,1,282,443.58Z" fill="#f7a48b"/>
<path d="M316.23,444.51a23.81,23.81,0,0,1-.32-5.19c-3.16,3.35-14.76,4.74-19.79,5.2H296s17.6-3.5,20.9-8.45C316.92,436.07,317.37,442.33,316.23,444.51Z" fill="#f7a48b"/>
<path d="M376,479.77c-9.27,10.41-18.4-2.13-18.4-2.13-3.15-3.49-9.4-14.9-9.4-14.9-2.4-6.49-5.67-5.71-5.67-5.71-7.08.88-10.35-1.58-10.35-1.58-3.49-3.32-.45-3-.45-3a3.13,3.13,0,0,0,1.94,2.23c2.05,1,6.13,1.23,14.12-.72,0,0,3.9,12.4,10.2,20.66a2.37,2.37,0,0,0,.2.27h0c3.29,4.24,7.24,7.31,11.61,6.89A16,16,0,0,0,376,479.77Z" fill="#f2927c"/>
<path d="M377.74,477a3.38,3.38,0,0,1-1.7,2.77,16,16,0,0,1-6.19,2c-4.37.42-8.32-2.65-11.61-6.89h0a2.37,2.37,0,0,1-.2-.27c-6.3-8.26-10.2-20.66-10.2-20.66-8,1.95-12.07,1.68-14.12.72a3.13,3.13,0,0,1-1.94-2.23A1.23,1.23,0,0,1,333,451a30,30,0,0,0,8.58-1.89,3.84,3.84,0,0,0,2.1-1.8c4.92-9.18,9.12-7.47,9.12-7.47,3.33-1.16,9.58-28,11.92-38.51l.9-4.17c.26.23.81.16,1.28,0a10,10,0,0,1,2.09-.33c9.49-.43,12.09,3.43,12.09,3.43a7.22,7.22,0,0,0,2.43,2.21L375.62,421l-8.68,20.3C364.24,450,377.74,477,377.74,477Z" fill="#f9b499"/>
<path d="M358,474.61c-6.3-8.26-10.2-20.66-10.2-20.66-8,1.95-12.07,1.68-14.12.72l0,0s12.48-1.53,15-3.77C348.68,450.88,355.68,471.13,358,474.61Z" fill="#f7a48b"/>
<path d="M361.76,468.48c1.69,2.11,3.16,4.35,4.63,6.57l4.31,6.77a20.41,20.41,0,0,1-2.79-2.94c-.85-1.05-1.62-2.16-2.36-3.28A43,43,0,0,1,361.76,468.48Z" fill="#f7a48b"/>
<path d="M367.43,467.72a54.23,54.23,0,0,1,6.62,13.06,53.76,53.76,0,0,1-6.62-13.06Z" fill="#f7a48b"/>
<path d="M370.74,467a41.71,41.71,0,0,1,3.52,5.82,40.29,40.29,0,0,1,2.63,6.27,41.71,41.71,0,0,1-3.52-5.82A40.29,40.29,0,0,1,370.74,467Z" fill="#f7a48b"/>
<path d="M375.62,421l1.94-14.77c-.67-8.67-12.82-4.9-12.82-4.9l.9-4.17c.27.24.85.16,1.33,0a10.63,10.63,0,0,1,2.25-.33c9.32-.36,11.88,3.44,11.88,3.44a7.22,7.22,0,0,0,2.43,2.21Z" fill="#f7a48b"/>
<path d="M171,463.61s4.48,11.18-2.05,13c0,0-29.36,1.82-31.29,13,0,0,9.79-8.93,22.79-8.93l14.85.08.34-7.13s-.3-1.41,1.49-3.58A10.32,10.32,0,0,1,187.84,465a50.08,50.08,0,0,1-4.29-8.38S173.62,462.33,171,463.61Z" fill="#f7a48b"/>
<path d="M233.59,461.42a24.69,24.69,0,0,0,2.78-7.8s.14-4.91,8.59,0c0,0,56.62,39.39,66.66,43.47l-48.38,1.34s2.18-13.3-2-22.85a8.68,8.68,0,0,0-1.57-2.36C257.13,470.46,249.85,464.3,233.59,461.42Z" fill="#f7a48b"/>
<path d="M263.24,498.43s16.33-3.94,27.06-3.06c0,0,10.3.66,3.49-4.83,0,0-15.29-8.76-15.11-13.93l32.94,20.48Z" fill="#f2927c"/>
<path d="M233.59,461.42a30.23,30.23,0,0,0,2.78-7.8,36.1,36.1,0,0,1,1,4.75,4.5,4.5,0,0,0,3.39,3.77,19.9,19.9,0,0,0,3.11.43s5.39.26,6.82,4.25A70.38,70.38,0,0,0,233.59,461.42Z" fill="#f2927c"/>
<path d="M388.48,459.45s10.74-6.62,13.08,1.34Z" opacity="0.2"/>
<ellipse cx="235.71" cy="427.71" rx="7.25" ry="9.7" transform="translate(-41.3 25.52) rotate(-5.7)" fill="#f9b499"/>
<ellipse cx="236.37" cy="426.46" rx="3.38" ry="5.14" fill="#f7a48b"/>
<path d="M230,417.73a6.18,6.18,0,0,1,3.79-2.33c2.43-.4,6.42,2.72,6.71,2.82s-.87,1.26-2.62,2.92a5.69,5.69,0,0,1-3.79,1.56,20.21,20.21,0,0,0-3.7-1.27c-1.56-.29-2.14,1-2.34-.77S230,417.73,230,417.73Z" fill="#d600f2" data-primary="true"/>
<path d="M229.62,420s2.14-2.72,1.26-5.26a30.55,30.55,0,0,0-2.63-5c-.1-.39-1.36,1.26-3.31,3.31s-2.72,4.48-1.84,5.93a9.32,9.32,0,0,0,3.21,2.63Z" fill="#d600f2" data-primary="true"/>
<path d="M226.31,421.62s-.88-4.28-3.21-5.35a6.44,6.44,0,0,0-6.32.78c-1.36,1.07-2.14,3.31-2.43,3.5s.29-.19,2.63.88a16.42,16.42,0,0,0,6.81,1.36C225.82,422.79,226.31,421.62,226.31,421.62Z" fill="#d600f2" data-primary="true"/>
<path d="M226.31,421.62s-2.83-1-4.67-.19a10.12,10.12,0,0,0-4,3.89c-.49.88-.78,1.36-.78,1.36l5.35.59c2.72.29,4.77-1.27,4.86-2.73S227.08,421.82,226.31,421.62Z" fill="#d600f2" data-primary="true"/>
<path d="M226.31,421.62a5.85,5.85,0,0,1,3.31-1.65c2.23-.39,5.44,1.26,6.51,2.82a19,19,0,0,1,1.85,3.69,9.63,9.63,0,0,1-4.57,1.27c-3,.19-5.54.48-7-2.53S226.31,421.62,226.31,421.62Z" fill="#d600f2" data-primary="true"/>
<circle cx="227.33" cy="420.92" r="1.9" opacity="0.2"/>
<path d="M390.9,519.55c0,4.57-8.37,8.26-18.7,8.26-8.25,0-15.26-2.36-17.73-5.64a4.28,4.28,0,0,1-1-2.62c0-4.55,8.37-8.26,18.69-8.26,7.77,0,14.42,2.1,17.24,5.06A4.65,4.65,0,0,1,390.9,519.55Z" fill="#5e5e5e" data-secondary="true"/>
<path d="M397.64,535.3c0,6.47-11.73,11.71-26.22,11.71-8.85,0-16.67-2-21.41-5-3-1.89-4.79-4.22-4.79-6.74,0-6.47,11.73-11.71,26.2-11.71,11.87,0,21.89,3.51,25.11,8.34h0A6,6,0,0,1,397.64,535.3Z" fill="#5e5e5e" data-secondary="true"/>
<path d="M401.75,555.7c0,7.84-14.34,14.21-32,14.21-12.94,0-24.1-3.41-29.14-8.32a8.28,8.28,0,0,1-2.88-5.89c0-7.85,14.33-14.21,32-14.21,13.78,0,25.54,3.87,30.06,9.29A7.67,7.67,0,0,1,401.75,555.7Z" fill="#5e5e5e" data-secondary="true"/>
<path d="M411.89,576.83c0,9.76-18.42,17.69-41.15,17.69-14.83,0-27.83-3.37-35.07-8.44-3.86-2.7-6.08-5.87-6.08-9.25,0-9.77,18.42-17.69,41.15-17.69,17.63,0,32.66,4.77,38.52,11.47A9.39,9.39,0,0,1,411.89,576.83Z" fill="#5e5e5e" data-secondary="true"/>
<path d="M411.89,576.83c0,9.76-18.42,17.69-41.15,17.69-14.83,0-27.83-3.37-35.07-8.44,18.34-.24,62.3-2.22,73.59-15.47A9.39,9.39,0,0,1,411.89,576.83Z" opacity="0.2"/>
<path d="M401.75,555.7c0,7.84-14.34,14.21-32,14.21-12.94,0-24.1-3.41-29.14-8.32,13,.8,43.79,1.28,59.2-10.81A7.67,7.67,0,0,1,401.75,555.7Z" opacity="0.2"/>
<path d="M397.64,535.3c0,6.47-11.73,11.71-26.22,11.71-8.85,0-16.67-2-21.41-5,0,0,37.58,2.71,46.52-10.11h0A6,6,0,0,1,397.64,535.3Z" opacity="0.2"/>
<path d="M390.9,519.55c0,4.57-8.37,8.26-18.7,8.26-8.25,0-15.26-2.36-17.73-5.64,0,0,25.26,4.72,35-5.82A4.65,4.65,0,0,1,390.9,519.55Z" opacity="0.2"/>
<path d="M455.88,584s-5-5.92-16.93-9.47a43.19,43.19,0,0,0-21.44-1.18s4.73-10.65,18.28-8.81,19.18,7,20.31,11.74A12.65,12.65,0,0,1,455.88,584Z" fill="#d600f2" data-primary="true"/>
<path d="M455.88,584s-5-5.92-16.93-9.47a43.19,43.19,0,0,0-21.44-1.18s4.73-10.65,18.28-8.81,19.18,7,20.31,11.74A12.65,12.65,0,0,1,455.88,584Z" opacity="0.2"/>
<path d="M458.59,584s12.63-9.47,23.46-11.74,18.28,1.18,18.28,1.18-6.32-7.45-20.77-9S457.45,581.05,458.59,584Z" fill="#d600f2" data-primary="true"/>
<path d="M458.59,584s12.63-9.47,23.46-11.74,18.28,1.18,18.28,1.18-6.32-7.45-20.77-9S457.45,581.05,458.59,584Z" opacity="0.2"/>
<path d="M460.16,573.83s3.55-6.31-7.44-14.89-19.87-6.54-25.05-5.2a34.61,34.61,0,0,0-9.25,4.07s11.72,3.84,21,7.67,18.05,14.2,18.05,14.2Z" fill="#d600f2" data-primary="true"/>
<path d="M459,578.57s2.93-18.27,7.44-21.2,10.65-3.16,17.38-.92,13.08,5,13.08,5-12.18-1.81-20.11,2.94S459,578.57,459,578.57Z" fill="#d600f2" data-primary="true"/>
<path d="M458.75,576.48c-.08-.29-8.16-29.44-9.05-70.11-.9-41.14,16.87-43.2,17.63-43.26l.1,1.17c-.17,0-17.42,2.14-16.55,42.07.89,40.51,8.93,69.52,9,69.81Z" fill="#5e5e5e" data-secondary="true"/>
<path d="M458.49,578.62c0-.32-2.53-31.48-1.18-57.84,1.36-26.67,14.43-33.83,15-34.12l.55,1c-.13.07-13,7.21-14.36,33.14-.92,18,0,38.27.62,49.35.93-10.88,3-29.91,6.85-41.9,5.7-17.78,13.51-18.44,13.84-18.46l.07,1.18c-.07,0-7.36.75-12.78,17.64-5.56,17.33-7.4,49.63-7.42,50Z" fill="#5e5e5e" data-secondary="true"/>
<path d="M484.78,482.38c3.55-5.41,0-8.9-5.39-5.4-1.35-6.3-6.29-6.3-7.63,0-5.41-3.55-8.9,0-5.39,5.4-6.3,1.35-6.3,6.28,0,7.63-3.55,5.41,0,8.9,5.39,5.39,1.34,6.3,6.28,6.3,7.63,0,5.4,3.55,8.89,0,5.39-5.39C491.09,488.66,491.09,483.73,484.78,482.38Z" fill="#fff"/>
<circle cx="475.58" cy="486.19" r="2.6" fill="#d600f2" data-primary="true"/>
<path d="M493.63,506.47c3.55-5.41,0-8.9-5.39-5.4-1.35-6.29-6.29-6.29-7.63,0-5.41-3.55-8.9,0-5.4,5.4-6.29,1.35-6.29,6.28,0,7.63-3.55,5.4,0,8.89,5.4,5.39,1.34,6.3,6.28,6.3,7.63,0,5.4,3.55,8.89,0,5.39-5.39C499.88,512.75,499.88,507.82,493.63,506.47Z" fill="#fff"/>
<circle cx="484.37" cy="510.28" r="2.6" fill="#d600f2" data-primary="true"/>
<path d="M479.58,458.29c3.55-5.41,0-8.9-5.4-5.4-1.35-6.3-6.28-6.3-7.63,0-5.41-3.55-8.9,0-5.4,5.4-6.29,1.35-6.29,6.28,0,7.63-3.55,5.41,0,8.9,5.4,5.38,1.35,6.31,6.28,6.31,7.63,0,5.41,3.55,8.9,0,5.4-5.38C485.87,464.57,485.87,459.64,479.58,458.29Z" fill="#fff"/>
<circle cx="470.36" cy="462.1" r="2.6" fill="#d600f2" data-primary="true"/>
<path d="M459.63,578.61l-1.18-.09a448.85,448.85,0,0,0,.91-52.26c-1.28-25.88-8.91-35.69-9-35.79l.93-.74c.32.41,7.94,10.22,9.24,36.48A449,449,0,0,1,459.63,578.61Z" fill="#5e5e5e" data-secondary="true"/>
<path d="M460,486.28c3.55-5.41,0-8.9-5.39-5.39-1.35-6.3-6.29-6.3-7.63,0-5.41-3.55-8.9,0-5.4,5.39-6.29,1.35-6.29,6.28,0,7.63-3.55,5.41,0,8.9,5.4,5.4,1.34,6.29,6.28,6.29,7.63,0,5.4,3.55,8.89,0,5.39-5.4C466.34,492.56,466.34,487.63,460,486.28Z" fill="#fff"/>
<path d="M453.4,490.1a2.61,2.61,0,1,0-2.62,2.61h0A2.61,2.61,0,0,0,453.4,490.1Z" fill="#d600f2" data-primary="true"/>
<rect x="431.95" y="577.95" width="52.8" height="16.24" fill="#5e5e5e" data-secondary="true"/>
<rect x="474.23" y="577.95" width="10.53" height="16.24" fill="#5e5e5e" data-secondary="true"/>
<rect x="474.23" y="577.95" width="10.53" height="16.24" opacity="0.2"/>
<path d="M619.76,277.43Q623.9,287,628,296.55L641.2,327l3,6.94c.32.74,1.39.1,1.08-.63q-4.14-9.56-8.27-19.12l-13.17-30.45-3-6.93c-.32-.74-1.4-.11-1.08.63Z" fill="#5e5e5e" data-secondary="true"/>
<path d="M631.07,273.34l4.29,46.1c.07.8,1.32.81,1.25,0l-4.29-46.1C632.25,272.55,631,272.54,631.07,273.34Z" fill="#5e5e5e" data-secondary="true"/>
<path d="M637.25,276.37q-.42,20.91-.83,41.84a.64.64,0,0,0,.7.55.65.65,0,0,0,.55-.55q.42-20.93.83-41.84a.64.64,0,0,0-.71-.55A.63.63,0,0,0,637.25,276.37Z" fill="#5e5e5e" data-secondary="true"/>
<path d="M636.81,317.94a333.76,333.76,0,0,1,15.58-41.28c.33-.73-.74-1.36-1.08-.63a336.9,336.9,0,0,0-15.7,41.57.63.63,0,0,0,1.21.34Z" fill="#5e5e5e" data-secondary="true"/>
<polygon points="648.97 323.55 648.97 343.52 624.65 343.52 624.65 323.67 625.49 323.17 630.94 319.94 631.78 319.44 631.78 315.32 640.98 315.32 641.05 318.94 641.06 319.44 642.02 319.94 648.24 323.17 648.97 323.55" fill="#d600f2" data-primary="true"/>
<rect x="564.85" y="310.3" width="20.28" height="29.31" fill="#d1d3d4"/>
<rect x="544.31" y="322.07" width="19.6" height="17.54" fill="#e0e0e0"/>
<rect x="581.18" y="322.07" width="19.6" height="17.54" fill="#e0e0e0"/>
<path d="M556.09,313.88a2.44,2.44,0,0,0-1.27-1.24,2.8,2.8,0,0,0-2.56.59,4.2,4.2,0,0,0-1.6,4,3.59,3.59,0,0,0,3.05,2.9l-.66-.18a2.73,2.73,0,0,0,2.73-1.24,5,5,0,0,0,.71-3.06A4.52,4.52,0,0,0,556.09,313.88Z" fill="#d600f2" data-primary="true"/>
<g opacity="0.3">
<path d="M555.2,316.24a1.52,1.52,0,0,0-.79-.77,1.7,1.7,0,0,0-1.59.36,2.64,2.64,0,0,0-1,2.48,2.23,2.23,0,0,0,1.9,1.81l-.41-.11a1.72,1.72,0,0,0,1.7-.78,3.17,3.17,0,0,0,.44-1.9A2.89,2.89,0,0,0,555.2,316.24Z" fill="#fff"/>
</g>
<path d="M553.55,319.22c.15,0,.26.71.26,1.57s-.11,1.57-.26,1.57-.26-.7-.26-1.57S553.39,319.22,553.55,319.22Z" fill="#5e5e5e" data-secondary="true"/>
<path d="M577.79,302.19a2.39,2.39,0,0,0-1.28-1.24,2.78,2.78,0,0,0-2.55.59,4.2,4.2,0,0,0-1.6,4,3.59,3.59,0,0,0,3,2.9l-.66-.18a2.73,2.73,0,0,0,2.73-1.24,5,5,0,0,0,.71-3.06A4.47,4.47,0,0,0,577.79,302.19Z" fill="#d600f2" data-primary="true"/>
<g opacity="0.3">
<path d="M576.9,304.54a1.47,1.47,0,0,0-.79-.76,1.7,1.7,0,0,0-1.59.36,2.63,2.63,0,0,0-1,2.48,2.23,2.23,0,0,0,1.9,1.81l-.41-.11a1.72,1.72,0,0,0,1.7-.78,3.17,3.17,0,0,0,.44-1.9A3,3,0,0,0,576.9,304.54Z" fill="#fff"/>
</g>
<path d="M575.25,307.53c.14,0,.26.71.26,1.57s-.12,1.57-.26,1.57-.26-.7-.26-1.57S575.11,307.53,575.25,307.53Z" fill="#5e5e5e" data-secondary="true"/>
<path d="M594.25,314.4a2.44,2.44,0,0,0-1.28-1.23,2.77,2.77,0,0,0-2.56.58,4.22,4.22,0,0,0-1.6,4,3.61,3.61,0,0,0,3.06,2.91l-.67-.18a2.73,2.73,0,0,0,2.74-1.25,5,5,0,0,0,.7-3.05A4.75,4.75,0,0,0,594.25,314.4Z" fill="#d600f2" data-primary="true"/>
<g opacity="0.3">
<path d="M593.39,316.76a1.49,1.49,0,0,0-.8-.76,1.7,1.7,0,0,0-1.59.36,2.61,2.61,0,0,0-1,2.48,2.22,2.22,0,0,0,1.89,1.81l-.41-.11a1.72,1.72,0,0,0,1.7-.78,3.1,3.1,0,0,0,.44-1.9A3.18,3.18,0,0,0,593.39,316.76Z" fill="#fff"/>
</g>
<path d="M591.7,319.75c.15,0,.26.7.26,1.57s-.11,1.57-.26,1.57-.26-.7-.26-1.57S591.56,319.75,591.7,319.75Z" fill="#5e5e5e" data-secondary="true"/>
<path d="M576.28,312.78a1.11,1.11,0,0,1,.1,1,1.5,1.5,0,0,1-2.86.12.61.61,0,0,1,0-.12,2.43,2.43,0,0,0-.32-.78c-.12-.13-.3-.09-.41.19a5.82,5.82,0,0,0-.24,1,17.48,17.48,0,0,0-.21,4.68,2.24,2.24,0,0,1-.38,1.33,1.46,1.46,0,0,1-1.29.54,2,2,0,0,1-1.2-.53,3.71,3.71,0,0,1-.73-.94,10.84,10.84,0,0,1-1.25-3.72,9.72,9.72,0,0,1,0-2.64,2.57,2.57,0,0,1,.21-.94,19.74,19.74,0,0,0,.19,3.52,11,11,0,0,0,1.31,3.54,2.08,2.08,0,0,0,1.54,1.2,1,1,0,0,0,.85-.34,2,2,0,0,0,.27-1,16.9,16.9,0,0,1,.26-4.76,5.74,5.74,0,0,1,.29-1.08.92.92,0,0,1,.47-.48.65.65,0,0,1,.69.19,3,3,0,0,1,.38.94,1.09,1.09,0,0,0,.41.6,1.26,1.26,0,0,0,1.24.19,1.33,1.33,0,0,0,.68-.72A2.21,2.21,0,0,0,576.28,312.78Z" fill="#5e5e5e" data-secondary="true"/>
<path d="M537.92,339.61h-.36c1.64,2.25,4.24,3.75,8.47,4h57.82c4.68,0,7-2,8-4Z" fill="#5e5e5e" data-secondary="true"/>
<path d="M537.92,339.61h-.36c1.64,2.25,4.24,3.75,8.47,4h57.82c4.68,0,7-2,8-4Z" opacity="0.2"/>
<rect x="556.5" y="356.88" width="9.54" height="9.54" fill="#5e5e5e" data-secondary="true"/>
<rect x="625.28" y="356.88" width="9.54" height="9.54" fill="#5e5e5e" data-secondary="true"/>
<g opacity="0.2">
<rect x="556.5" y="356.88" width="9.54" height="9.54"/>
<rect x="625.28" y="356.88" width="9.54" height="9.54"/>
</g>
<rect x="529.46" y="343.54" width="128.45" height="15.11" fill="#5e5e5e" data-secondary="true"/>
<polygon points="642.02 319.94 630.94 319.94 631.78 319.44 631.78 318.94 641.05 318.94 641.06 319.44 642.02 319.94" opacity="0.2"/>
<polygon points="648.97 323.55 648.97 324.17 624.65 324.17 624.65 323.67 625.49 323.17 648.24 323.17 648.97 323.55" opacity="0.2"/>
<g id="a013613f-5e65-4c0b-aab2-82a842433571" data-name="freepik--Pictures--inject-6">
<rect x="143.73" y="194.51" width="125.45" height="146.71" fill="#5e5e5e" data-secondary="true"/>
<rect x="147.23" y="197.81" width="119.41" height="139.88" fill="#fff"/>
<path d="M212.07,249.53c-4.06.52-8.44-4-10.21-8a22.19,22.19,0,0,1-1.21-12.81,52.39,52.39,0,0,1,4.16-12.35,17,17,0,0,1,8,13c.54,6.88-1.69,13.41-.7,20.24" fill="#d600f2" data-primary="true"/>
<path d="M225.94,256.81c-4-4-9.68-5.6-14.07-9.09l-.11-.06c-.35,5-.25,10,2.14,14.42a18,18,0,0,0,8.4,7.36,53.23,53.23,0,0,0,10.85,3.27C231.72,267,230.12,261,225.94,256.81Z" fill="#d600f2" data-primary="true"/>
<path d="M244.45,245.91c-2.32-2.06-4.86-4.22-7.94-4.55a15.21,15.21,0,0,0-5.56.83l-14.09,4L212.18,249c4,2,7.34,5.09,11.11,7.5s8.23,4.24,12.63,3.43c3.45-.64,6.4-2.81,9-5.14,1.16-1,2.35-2.24,2.51-3.78C247.67,249,246,247.27,244.45,245.91Z" fill="#d600f2" data-primary="true"/>
<g opacity="0.3">
<path d="M212.36,249.44a14.17,14.17,0,0,0,18.35-7.09"/>
</g>
<path d="M233.5,224.26a3.27,3.27,0,0,0-2.15-.84A13.35,13.35,0,0,0,226,224a14.52,14.52,0,0,1-4.29,1.11c-.89,0-1.77-.26-2.66-.29a6.61,6.61,0,0,0-5.09,2.55,13.61,13.61,0,0,0-2.47,5.31c-1.19,4.49-1.62,12.2-.66,16.75,4,.5,8.15-1.07,12.33-2.53,3.42-1.19,7.73-3.66,9.27-6.94a14.11,14.11,0,0,0,1-5.05c.2-2.6.39-5.19.59-7.78A3.71,3.71,0,0,0,233.5,224.26Z" fill="#d600f2" data-primary="true"/>
<path d="M200.58,318.73a2.63,2.63,0,0,1-.23-.72c-.13-.54-.31-1.24-.54-2.12-.45-1.83-1.1-4.49-1.81-7.8s-1.47-7.28-2-11.73a76.31,76.31,0,0,1-.5-14.57,65.24,65.24,0,0,1,1-7.5,53.75,53.75,0,0,1,1.83-6.8A38.65,38.65,0,0,1,203.87,257a30,30,0,0,1,5.58-5.73,18.26,18.26,0,0,1,1.78-1.27,3.91,3.91,0,0,1,.65-.4,5.47,5.47,0,0,1-.59.49c-.38.32-1,.7-1.71,1.33a32.21,32.21,0,0,0-5.45,5.8,39.08,39.08,0,0,0-5.37,10.48,54.41,54.41,0,0,0-1.79,6.74,64.22,64.22,0,0,0-1,7.44,78.62,78.62,0,0,0,.46,14.47c.52,4.44,1.25,8.4,1.91,11.71s1.25,6,1.64,7.84c.19.89.33,1.6.45,2.13A5,5,0,0,1,200.58,318.73Z" fill="#5e5e5e" data-secondary="true"/>
<path d="M193.52,271.07a27.67,27.67,0,0,0-7.58-6.08,43.2,43.2,0,0,1-8-5.6,29.6,29.6,0,0,0-.36,11.93,15.56,15.56,0,0,0,6.26,9.9c3.34,2.21,8.48,3.69,11.84,1.51v-.17C196.16,278.82,195.55,273.62,193.52,271.07Z" fill="#5e5e5e" data-secondary="true"/>
<path d="M193.52,271.07a27.67,27.67,0,0,0-7.58-6.08,43.2,43.2,0,0,1-8-5.6,29.6,29.6,0,0,0-.36,11.93,15.56,15.56,0,0,0,6.26,9.9c3.34,2.21,8.48,3.69,11.84,1.51v-.17C196.16,278.82,195.55,273.62,193.52,271.07Z" opacity="0.2"/>
<path d="M238.67,259.08a5.08,5.08,0,0,1-1.07.53,11.36,11.36,0,0,1-1.35.38,16.41,16.41,0,0,1-1.83.25,25.63,25.63,0,0,1-10.45-2,31.06,31.06,0,0,1-9.14-5.45c-.54-.42-.94-.9-1.34-1.27a9.65,9.65,0,0,1-.92-1,4.61,4.61,0,0,1-.7-1c.08-.07,1.11,1.27,3.2,3a33.93,33.93,0,0,0,9.09,5.25,27.31,27.31,0,0,0,10.29,2.1c.67-.07,1.28-.06,1.8-.17a13.29,13.29,0,0,0,1.34-.28A5.44,5.44,0,0,1,238.67,259.08Z" fill="#5e5e5e" data-secondary="true"/>
<path d="M231.26,242a5.7,5.7,0,0,1-.59.58c-.4.35-1,.84-1.8,1.41a29.34,29.34,0,0,1-6.59,3.61,31.74,31.74,0,0,1-7.31,1.78c-.95.11-1.73.18-2.27.2a2.31,2.31,0,0,1-.83,0,25.94,25.94,0,0,1,3-.54,38.88,38.88,0,0,0,7.17-1.9,35.79,35.79,0,0,0,6.58-3.43A25.2,25.2,0,0,1,231.26,242Z" fill="#5e5e5e" data-secondary="true"/>
<path d="M211.87,249.55a5,5,0,0,1-.32-.79,19.55,19.55,0,0,1-.58-2.25,28.45,28.45,0,0,1,.89-15.14c.32-.92.62-1.66.85-2.15a2.5,2.5,0,0,1,.41-.75c.08,0-.36,1.15-.91,3a33,33,0,0,0-.88,15C211.64,248.36,212,249.53,211.87,249.55Z" fill="#5e5e5e" data-secondary="true"/>
<path d="M223.87,280.46a17.41,17.41,0,0,0-6.83-1.94c-3.09-.32-6.54-.07-8.77,2.09a8.6,8.6,0,0,0-2.21,6.94c.21,2.5.9,4.55,2.62,5.44a4.87,4.87,0,0,0,3.15,4,10.2,10.2,0,0,0,5.28.44,14.85,14.85,0,0,0,8.21-3.41,8.62,8.62,0,0,0,2.89-8.11A8.87,8.87,0,0,0,223.87,280.46Z" fill="#e0e0e0"/>
<path d="M173.45,231.25a17,17,0,0,0-1.54,6.94c-.14,3.1.3,6.53,2.59,8.63a8.62,8.62,0,0,0,7,1.81c2.49-.35,4.5-1.16,5.28-2.93a4.88,4.88,0,0,0,3.81-3.37,10.46,10.46,0,0,0,.13-5.3,15.12,15.12,0,0,0-3.87-8,8.68,8.68,0,0,0-8.27-2.41A8.84,8.84,0,0,0,173.45,231.25Z" fill="#e0e0e0"/>
<path d="M218.5,285.65a9.15,9.15,0,0,1-1.31.93,14.93,14.93,0,0,0-1.54,1.06c-.54.44-1.28.9-2,1.49s-1.5,1.2-2.29,1.94-1.63,1.52-2.49,2.38a48.3,48.3,0,0,0-9,12.9c-.5,1.1-1,2.15-1.36,3.16s-.73,1.95-1,2.83-.5,1.67-.7,2.37-.35,1.31-.45,1.82a11.39,11.39,0,0,1-.41,1.55,8.55,8.55,0,0,1,.21-1.59,16.82,16.82,0,0,1,.37-1.85c.18-.71.34-1.53.63-2.41s.56-1.86,1-2.87.84-2.09,1.33-3.22a51.68,51.68,0,0,1,4-6.91,49.43,49.43,0,0,1,5-6.09c.88-.85,1.7-1.68,2.54-2.37s1.62-1.34,2.36-1.9,1.43-1,2-1.44a18.5,18.5,0,0,1,1.59-1A9.72,9.72,0,0,1,218.5,285.65Z" fill="#5e5e5e" data-secondary="true"/>
<path d="M183,241a5.58,5.58,0,0,1,1.08.57c.41.23.81.49,1.2.76s1,.67,1.54,1.11a34.54,34.54,0,0,1,10.41,13.29,34.67,34.67,0,0,1,1.67,4.64c.21.67.33,1.29.46,1.83s.19.94.26,1.41a6.13,6.13,0,0,1,.12,1.21c-.1,0-.36-1.7-1.19-4.35a39.07,39.07,0,0,0-1.76-4.54,37.36,37.36,0,0,0-6.65-9.85,37.21,37.21,0,0,0-3.55-3.33C184.45,241.94,183,241.05,183,241Z" fill="#5e5e5e" data-secondary="true"/>
<rect x="255.72" y="78.98" width="80.61" height="80.61" fill="#5e5e5e" data-secondary="true"/>
<rect x="260.48" y="83.74" width="71.08" height="71.08" fill="#fff"/>
<path d="M276.81,116.61c-5,5.54-7,13.24-7,20.68a50.47,50.47,0,0,1,17.93-24.21c3.16-2.29,7.11-4,10.82-3.77C291,108.15,281.94,110.92,276.81,116.61Z" fill="#455a64"/>
<path d="M288.23,105.61a14.67,14.67,0,0,0-7.21,2.48c-3.38,2-6.6,4.61-8.25,8.19A27,27,0,0,1,297,108.51C294.28,106.93,291.35,105.61,288.23,105.61Z" fill="#455a64"/>
<path d="M296,97.3a5,5,0,0,0-2.31,6.68,4.78,4.78,0,0,0,.73,1.1,21.85,21.85,0,0,0,2.91,3.17c1.21-4.1,2.62-8.37,3.84-12.47A13.21,13.21,0,0,0,296,97.3Z" fill="#455a64"/>
<path d="M304.66,97.47a12.4,12.4,0,0,0-5.1,4.87c-1.11,2.1-1.7,4.81-.6,6.93A176.4,176.4,0,0,1,311.3,94.85,36.53,36.53,0,0,0,304.66,97.47Z" fill="#455a64"/>
<path d="M311.55,105.1a14.28,14.28,0,0,0-12.5,4.51,11.83,11.83,0,0,1,6.6-.81A155.83,155.83,0,0,1,322.22,113,14.28,14.28,0,0,0,311.55,105.1Z" fill="#455a64"/>
<path d="M320.25,147.13l-.05-.11-.1-.33c-.09-.29-.2-.72-.38-1.27-.35-1.1-.89-2.68-1.65-4.6A116.93,116.93,0,0,0,311,126.35,113.78,113.78,0,0,0,302,112.93a31.24,31.24,0,0,0-3.28-3.61,9.67,9.67,0,0,0-1-.82l-.3-.18-.09-.07h.1l.31.16a7.46,7.46,0,0,1,1.08.79,28.4,28.4,0,0,1,3.35,3.58,107,107,0,0,1,9,13.4,108.28,108.28,0,0,1,7.07,14.53c.74,1.93,1.27,3.52,1.58,4.63.17.56.27,1,.35,1.29l.08.34A.47.47,0,0,0,320.25,147.13Z" fill="#5e5e5e" data-secondary="true"/>
<path d="M299.6,109.31c-4.33,0-8.33,3-10.11,7A17.69,17.69,0,0,0,289.3,129a39.92,39.92,0,0,0,6.42,11.25,95.27,95.27,0,0,0,4.44-14.6A37.19,37.19,0,0,0,299.6,109.31Z" fill="#455a64"/>
<path d="M276.81,116.61c-5,5.54-7,13.24-7,20.68a50.47,50.47,0,0,1,17.93-24.21c3.16-2.29,7.11-4,10.82-3.77C291,108.15,281.94,110.92,276.81,116.61Z" fill="#5e5e5e" data-secondary="true"/>
<path d="M288.23,105.61a14.67,14.67,0,0,0-7.21,2.48c-3.38,2-6.6,4.61-8.25,8.19A27,27,0,0,1,297,108.51C294.28,106.93,291.35,105.61,288.23,105.61Z" fill="#5e5e5e" data-secondary="true"/>
<path d="M296,97.3a5,5,0,0,0-2.31,6.68,4.78,4.78,0,0,0,.73,1.1,21.85,21.85,0,0,0,2.91,3.17c1.21-4.1,2.62-8.37,3.84-12.47A13.21,13.21,0,0,0,296,97.3Z" fill="#5e5e5e" data-secondary="true"/>
<path d="M304.66,97.47a12.4,12.4,0,0,0-5.1,4.87c-1.11,2.1-1.7,4.81-.6,6.93A176.4,176.4,0,0,1,311.3,94.85,36.53,36.53,0,0,0,304.66,97.47Z" fill="#5e5e5e" data-secondary="true"/>
<path d="M311.55,105.1a14.28,14.28,0,0,0-12.5,4.51,11.83,11.83,0,0,1,6.6-.81A155.83,155.83,0,0,1,322.22,113,14.28,14.28,0,0,0,311.55,105.1Z" fill="#5e5e5e" data-secondary="true"/>
<path d="M299.6,109.31c-4.33,0-8.33,3-10.11,7A17.69,17.69,0,0,0,289.3,129a39.92,39.92,0,0,0,6.42,11.25,95.27,95.27,0,0,0,4.44-14.6A37.19,37.19,0,0,0,299.6,109.31Z" fill="#5e5e5e" data-secondary="true"/>
<path d="M195.69,282.73c-.08,0-.53-1.07-1.69-2.58a32.65,32.65,0,0,0-5.24-5.27,35.36,35.36,0,0,1-5.65-5,11.23,11.23,0,0,1-1.32-1.89,2,2,0,0,1-.33-.77c.08,0,.62,1,1.92,2.41a46.08,46.08,0,0,0,5.71,4.82,27.19,27.19,0,0,1,5.2,5.46,12.74,12.74,0,0,1,1.14,2A2.13,2.13,0,0,1,195.69,282.73Z" fill="#5e5e5e" data-secondary="true"/>
</g>
<path d="M467.44,193v-9.48H477v1.3l-5.87,2.28V193Z" fill="#5e5e5e" data-secondary="true"/>
<rect x="458.82" y="195.07" width="21.41" height="35.77" fill="#d600f2" data-primary="true"/>
<rect x="465.54" y="192.06" width="7.26" height="3.53" fill="#d600f2" data-primary="true"/>
<rect x="464.15" y="203.94" width="10.74" height="20.88" fill="#fff"/>
<path d="M440.56,193v-9.48h9.51v1.3l-5.86,2.28V193Z" fill="#5e5e5e" data-secondary="true"/>
<rect x="431.94" y="195.07" width="21.41" height="35.77" fill="#d600f2" data-primary="true"/>
<rect x="438.66" y="192.06" width="7.26" height="3.53" fill="#d600f2" data-primary="true"/>
<rect x="437.27" y="203.94" width="10.75" height="20.88" fill="#fff"/>
<rect x="429.08" y="244.37" width="9.54" height="9.54" fill="#5e5e5e" data-secondary="true"/>
<rect x="482.14" y="244.37" width="9.54" height="9.54" fill="#5e5e5e" data-secondary="true"/>
<rect x="429.08" y="244.37" width="9.54" height="9.54"/>
<rect x="482.14" y="244.37" width="9.54" height="9.54"/>
<rect x="422.05" y="231.03" width="76.66" height="15.11" fill="#5e5e5e" data-secondary="true"/>
<path d="M297.15,247.76s-6.45-2.24-9.28-6.93a5.52,5.52,0,0,1,1-7.05c1.68-1.46,4.63-2.9,9.78-3.3C298.65,230.48,294.85,238.78,297.15,247.76Z" fill="none" stroke="#ed1c24" stroke-miterlimit="10" stroke-width="0.5"/>
</svg>