 <!DOCTYPE svg PUBLIC "-//W3C//DTD SVG 1.1//EN" "http://www.w3.org/Graphics/SVG/1.1/DTD/svg11.dtd">
<svg id="ec13e953-c230-41c8-9be3-bbc82f5f0545" data-name="Layer 1" xmlns="http://www.w3.org/2000/svg" width="865.76" height="682.89" viewBox="0 0 865.76 682.89">
<defs>
<style xmlns="http://www.w3.org/1999/xhtml">*, ::after, ::before { box-sizing: border-box; }
img, svg { vertical-align: middle; }
</style>
<style xmlns="http://www.w3.org/1999/xhtml">*, body, html { }
img, svg { max-width: 100%; }
</style>
</defs>
<path d="M783.45,382.94a296.74,296.74,0,0,1-17.92,65.48l0,.09c-.83,2.05-1.65,4-2.43,5.76-.49,1.14-1,2.23-1.44,3.26l-.05.09A151,151,0,0,1,754,472.41q-3.12,6.6-6.64,12.79c-24.44,43.08-62,70.76-92.05,87.29-3.44,1.9-6.78,3.65-10,5.24-21.84,10.95-37.65,15.41-37.65,15.41-21.49,8.82-46,14.56-71.59,18.1a540.54,540.54,0,0,1-60,4.63C390,618,309.8,603.19,309.8,603.19c-106-24.14-154.25-67.62-154.25-67.62q-5.67-4.16-10.8-8.53l-1.69-1.46c-.57-.48-1.12-1-1.67-1.47l-1.83-1.65c-1-.93-2-1.86-3-2.81-.53-.49-1-1-1.55-1.5-.9-.86-1.79-1.75-2.65-2.64-.63-.63-1.25-1.26-1.85-1.9-1.46-1.53-2.88-3.07-4.24-4.62-.46-.51-.92-1-1.36-1.54a186,186,0,0,1-17.44-23.63c-.65-1.05-1.27-2.09-1.89-3.13s-1.24-2.1-1.83-3.16-1.19-2.1-1.75-3.14c-2.74-5-5.15-10-7.27-14.91-.12-.27-.24-.55-.34-.81-.42-.94-.82-1.89-1.2-2.84s-.67-1.64-1-2.46c-1.08-2.69-2-5.34-2.95-7.95-.23-.66-.46-1.31-.67-2C88,441.74,87.46,440,87,438.37l-.19-.61c-8.31-27.54-8-47.9-8-47.9-2.66-59.53,16.84-96.76,31.92-116.37,9.16-11.89,16.69-17.31,16.69-17.31s28.15-27.62,106.34-50.42C326.16,178.81,369,137.6,369,137.6,461.69,29.68,582.6,56.9,582.6,56.9,763.11,87.32,780.35,267.83,780.35,267.83A321.52,321.52,0,0,1,783.45,382.94Z" fill="#d600f2" data-primary="true"/>
<path d="M783.45,382.94a296.74,296.74,0,0,1-17.92,65.48l0,.09c-.83,2.05-1.65,4-2.43,5.76-.49,1.14-1,2.23-1.44,3.26l-.05.09A151,151,0,0,1,754,472.41q-3.12,6.6-6.64,12.79c-24.44,43.08-62,70.76-92.05,87.29-3.44,1.9-6.78,3.65-10,5.24-21.84,10.95-37.65,15.41-37.65,15.41-21.49,8.82-46,14.56-71.59,18.1a540.54,540.54,0,0,1-60,4.63C390,618,309.8,603.19,309.8,603.19c-106-24.14-154.25-67.62-154.25-67.62q-5.67-4.16-10.8-8.53l-1.69-1.46c-.57-.48-1.12-1-1.67-1.47l-1.83-1.65c-1-.93-2-1.86-3-2.81-.53-.49-1-1-1.55-1.5-.9-.86-1.79-1.75-2.65-2.64-.63-.63-1.25-1.26-1.85-1.9-1.46-1.53-2.88-3.07-4.24-4.62-.46-.51-.92-1-1.36-1.54a186,186,0,0,1-17.44-23.63c-.65-1.05-1.27-2.09-1.89-3.13s-1.24-2.1-1.83-3.16-1.19-2.1-1.75-3.14c-2.74-5-5.15-10-7.27-14.91-.12-.27-.24-.55-.34-.81-.42-.94-.82-1.89-1.2-2.84s-.67-1.64-1-2.46c-1.08-2.69-2-5.34-2.95-7.95-.23-.66-.46-1.31-.67-2C88,441.74,87.46,440,87,438.37l-.19-.61c-8.31-27.54-8-47.9-8-47.9-2.66-59.53,16.84-96.76,31.92-116.37,9.16-11.89,16.69-17.31,16.69-17.31s28.15-27.62,106.34-50.42C326.16,178.81,369,137.6,369,137.6,461.69,29.68,582.6,56.9,582.6,56.9,763.11,87.32,780.35,267.83,780.35,267.83A321.52,321.52,0,0,1,783.45,382.94Z" fill="#fff" opacity="0.7"/>
<ellipse cx="269.14" cy="105.07" rx="110.31" ry="71.32" transform="translate(-19.75 101.03) rotate(-20.52)" fill="#d600f2" data-primary="true"/>
<ellipse cx="269.14" cy="105.07" rx="110.31" ry="71.32" transform="translate(-19.75 101.03) rotate(-20.52)" fill="#fff" opacity="0.7"/>
<path d="M761.61,457.53l-.05.09A151,151,0,0,1,754,472.41q-3.12,6.6-6.64,12.79c-24.44,43.08-62,70.76-92.05,87.29-3.44,1.9-6.78,3.65-10,5.24H468.57V457.53Z" fill="#a7a9ac"/>
<path d="M763.05,454.27c-.49,1.14-1,2.23-1.44,3.26l-.05.09A151,151,0,0,1,754,472.41q-3.12,6.6-6.64,12.79L510.1,471.4l-1.54-13.78v-.09L508,453Z" opacity="0.2"/>
<path d="M783.45,382.94a296.74,296.74,0,0,1-17.92,65.48l0,.09H468.57V382.94Z" fill="#bcbec0"/>
<path d="M765.53,448.42l0,.09c-.83,2.05-1.65,4-2.43,5.76-.49,1.14-1,2.23-1.44,3.26l-.05.09h-293v-9.2Z" fill="#d1d3d4"/>
<path d="M658,567l-2.68,5.45c-26.83,14.78-47.63,20.65-47.63,20.65-21.49,8.82-46,14.56-71.59,18.1l-60,4.63C390,618,309.8,603.19,309.8,603.19c-106-24.14-154.25-67.62-154.25-67.62q-5.67-4.16-10.8-8.53l-1.69-1.46c-.57-.48-1.12-1-1.67-1.47l-1.83-1.65c-1-.93-2-1.86-3-2.81-.53-.49-1-1-1.55-1.5-.9-.86-1.79-1.75-2.65-2.64-.63-.63-1.25-1.26-1.85-1.9-1.46-1.53-2.88-3.07-4.24-4.62-.46-.51-.92-1-1.36-1.54a186,186,0,0,1-17.44-23.63c-.65-1.05-1.27-2.09-1.89-3.13s-1.24-2.1-1.83-3.16-1.19-2.1-1.75-3.14c-2.74-5-5.15-10-7.27-14.91-.12-.27-.24-.55-.34-.81-.42-.94-.82-1.89-1.2-2.84s-.67-1.64-1-2.46c-1.08-2.69-2-5.34-2.95-7.95-.23-.66-.46-1.31-.67-2C88,441.74,87.46,440,87,438.37l145.2-79.54L512.83,479Z" fill="#5e5e5e" data-secondary="true"/>
<path d="M364.65,485.18l-15.82,68.76L309.6,540.38c6.77-18-36.31-42.18-36.31-42.18l-59.88-39.73c-28.75-18-36.33-15.92-36.33-15.92-13,8.36-69.86,29.86-69.86,29.86a31.42,31.42,0,0,1-5.21,2c-2.74-5-5.15-10-7.27-14.91,2.38-2.27,4.5-4.12,4.5-5,0-2.5,35.53-49.17,35.53-49.17L325,460.12Z" opacity="0.2"/>
<path d="M503.91,487.4c36,19.27,77,50.19,77,50.19l1.79,12.13c1.35,20.66-31.44,34.13-31.44,34.13l-148,66.93c-25.88,13-44.64-8.09-44.64-8.09L302.9,603.17c-22.46-15.72-23.1-34.68-23.1-34.68C276,544.15,299.67,543,299.67,543l51.51-13.5,41.07-32Z" fill="#d600f2" data-primary="true"/>
<path d="M325.26,590.61l-39.5-42.14s-3,7.24,6.81,13.84Z" opacity="0.2"/>
<path d="M320.19,537.6s14,23.12,13.28,48.27c0,0-.27,16.75,8.44,24l27.59-45.54L363,543.16l-28.2-9.38Z" opacity="0.2"/>
<polygon points="494.68 562.32 494.68 531.79 510.1 490.79 503.91 487.39 497.47 499.82 478.86 559.19 479.8 571.21 494.68 562.32" opacity="0.2"/>
<path d="M387.94,514.85s17.12,13.84,28,14c0,0,28.58,7.71,40,7.05l-23,35.27,27.44-2.72,23.38-35.38-19.21-27.19-60.25-22.83-21.85,30.56Z" opacity="0.2"/>
<path d="M435.86,571.4l26.57-39.85,36.1-48.46,7.48-2.93s-2.92,20.66-14.74,48.57c0,0-1.37,27.78-5.74,35L456,568.5l4.41-15.26-11.67,16.31Z" fill="#f9b499"/>
<polygon points="435.86 571.4 447.47 567.04 460.4 553.24 448.73 569.55 435.86 571.4" fill="#f7a48b"/>
<path d="M456,568.5l4.41-15.26s17.93,2.74,28,1.41c0,0-1,6.81-2.85,9.07Z" fill="#f7a48b"/>
<path d="M470.94,555.62a29.11,29.11,0,0,1-1.82,5.93A28.68,28.68,0,0,1,466.2,567a32.35,32.35,0,0,1,4.74-11.42Z" fill="#f2927c"/>
<path d="M479.8,561.33a2.51,2.51,0,0,1,.59,1.66,2.46,2.46,0,0,1-.59,1.66,2.51,2.51,0,0,1-.59-1.66A2.56,2.56,0,0,1,479.8,561.33Z" fill="#f2927c"/>
<path d="M580.92,537.59a36.93,36.93,0,0,1-5.66,6.32,58.53,58.53,0,0,1-6.68,5.26,63.36,63.36,0,0,1-7.37,4.24c-1.26.65-2.57,1.17-3.86,1.75s-2.65,1-4,1.45c2.49-1.33,5-2.59,7.42-4s4.8-2.88,7.13-4.42,4.56-3.23,6.75-5c1.1-.87,2.16-1.78,3.2-2.73S579.93,538.61,580.92,537.59Z" opacity="0.2"/>
<path d="M368.31,614.84s46.44,3.23,76.33-15c0,0,25.3-14.08,34.22-11.78,0,0,43.65,8.42,53.09-2l10.72-10.63L509,571.21s-45.69,7.64-46.46,7.89-102.12,17.11-102.12,17.11Z" opacity="0.2"/>
<path d="M700.82,514.28H607.09a8.63,8.63,0,0,1-8.63-8.63l-.06-42.09c.72-12.93-4-15.15-4-15.15l-95.42-65.47H628.65l72.61,62.24c7.26,9.72,7.11,46.61,6.7,62.14A7.14,7.14,0,0,1,700.82,514.28Z" fill="#d600f2" data-primary="true"/>
<path d="M700.82,514.28H607.09a8.63,8.63,0,0,1-8.63-8.63l-.06-42.09c.72-12.93-4-15.15-4-15.15l-95.42-65.47H628.65l72.61,62.24c7.26,9.72,7.11,46.61,6.7,62.14A7.14,7.14,0,0,1,700.82,514.28Z" fill="#fff" opacity="0.4"/>
<path d="M607.67,514.28h-.58a8.63,8.63,0,0,1-8.63-8.63l-.06-42.09c.72-12.93-4-15.15-4-15.15l-95.42-65.47H510.1l87.36,62.33A15.73,15.73,0,0,1,604,457.06Z" fill="#fff" opacity="0.4"/>
<path d="M548.12,572.33l-7.23-.63c8-2,5.79-5.45,5.79-5.45l-29-4.15C504.49,559.29,466.2,567,466.2,567L431.87,572c-30.11,2.12-51.41,8-51.41,8-4-17.62,1.41-43.7,1.41-43.7,2.58-6.81,6.57-23.48,6.57-23.48,3.93-10.65,5.23-25.52,5.67-33.56a29.08,29.08,0,0,1,5.74-15.83c8.53-11.4,23.27-23.15,23.27-23.15l0-.08c-.06-.07-.11-.16-.16-.23l-.12-.16c-1.5-2.17-8.53-11.42-25-20.73l-.87-.48c-2.47-1.32-5-2.57-7.63-3.78-4.55-2.11-9.26-4-14-5.8a2.65,2.65,0,0,1-.3-.11c-5.18-1.79-10.87-3.47-17.09-5,.34-.15.69-.28,1.05-.41-1.55-.47-3.07-.92-4.57-1.35-1.75-.49-3.45-1-5.12-1.43h0c-15.44-4.15-27-6.1-27-6.1q-8.93-2.5-16.65-5.26c-4.71,8.64-9.51,15.19-13.44,15.74h-.13c-2.25-.16-31.87-2.44-29.28-12.84,0,0,1.45-6.86,7.31-19.44a114.89,114.89,0,0,1-21.52-16.37h0a42.52,42.52,0,0,1-3.7-4.09c-31.55-2.87-47.88,18.9-54.67,33.23A60,60,0,0,0,185,404.62c-1.58,14-6.69,22.44-6.69,22.44l34.47,20.84c28.4,14.75,39.21,27.83,39.21,27.83a222.21,222.21,0,0,0,34,26.87c19.43,13.87,47.49,18.77,47.49,18.77,1.35,4.06,4.74,68.29,4.74,68.29.12,2.26.27,4.26.42,6.05h0v0c1.2,13.12,3.28,14.11,3.28,14.11,6.08,18.5,56.88,0,56.88,0,27.13-5.59,68.88-23.58,68.88-23.58a18.27,18.27,0,0,1,11-2.37c10.48,3.88,25.1,1,25.1,1,5.33-.25,10.9,4.44,10.9,4.44,5.8,3.23,8.83,2.85,10.4,1.78a4,4,0,0,0,1.65-2.42L513.25,582l17.63-.13c12.43,1,11.79-4.06,11.79-4.06C548,576.89,548.12,572.33,548.12,572.33Z" fill="#f9b499"/>
<path d="M226.31,383.69q15.63,6.58,31.16,13.4l31,13.6c5.18,2.26,10.34,4.55,15.53,6.77l15.56,6.7c5.21,2.17,10.41,4.39,15.66,6.46s10.52,4.06,15.91,5.8c-11.05-2.52-21.7-6.51-32.26-10.55s-21-8.51-31.35-13-20.65-9.24-30.86-14.09S236.34,388.91,226.31,383.69Z" fill="#f7a48b"/>
<path d="M333.47,521.37s-28.07-4.9-47.5-18.77a221.87,221.87,0,0,1-34-26.87s-10.82-13.08-39.21-27.84l-34.48-20.83s5.11-8.4,6.7-22.45a59.63,59.63,0,0,1,5.21-19c6.79-14.33,22.1-35.93,54.68-33.23a40.69,40.69,0,0,0,3.69,4.08c-.75,0-35.5-1.92-51.22,35.11,0,0-15.59,23.25,14.8,43.34l64.51,37.54S333.12,491,333.47,521.37Z" fill="#f7a48b"/>
<path d="M270.12,372.8a193.27,193.27,0,0,0,35.54,16.55c-4.71,8.64-9.51,15.19-13.44,15.74h-.13c-2.25-.16-31.87-2.44-29.28-12.84C262.81,392.24,264.26,385.38,270.12,372.8Z" fill="#f9b499"/>
<path d="M359,403.5c5.19,1.57,10.62,3.36,16,5.37-5.18-1.79-10.87-3.47-17.09-5C358.3,403.76,358.65,403.63,359,403.5Z" fill="#f9b499"/>
<path d="M422.8,439.77c-1.5-2.17-8.53-11.42-25-20.73C408.48,424.81,417.57,431.7,422.8,439.77Z" fill="#f9b499"/>
<path d="M270.42,372.14h-2s-11.83,20.44-7.32,27.17c0,0,2.52,2.42,1.51,8,0,0-6,29.92,1.5,47.12l8.78,28s5.73,10.73,15.74,10.93c0,0,8.77,7.73,15.83,3.67,0,0,5.5-.59,10.05-9.1l-4.4-9.29s-12.63-14.29-11.38-24.19H304l-9.16-10.66-20.19-11-4.27-17.06,8-39.44Z" fill="#f2927c"/>
<path d="M500.71,359.87C491.84,373.31,483,385.73,483,385.73s16.22,42.09,7.59,68.71l-67.44-14.2,0-.08-.16-.23-.12-.16c-1.5-2.17-8.53-11.42-25-20.73l-.87-.48a138,138,0,0,0-21.6-9.58,2.65,2.65,0,0,1-.3-.11c-5.18-1.79-10.87-3.47-17.09-5,.34-.15.69-.28,1.05-.41-3.35-1-6.6-1.94-9.69-2.78a156.42,156.42,0,0,0-3.75-29.66s0-.05,0-.08a61.67,61.67,0,0,0-4.33-12.44c-.42-.86-.87-1.69-1.34-2.47,0,0-11.16-7.44-14.87-12.17,0,0-9.47,27.32-19.36,45.45-4.71,8.64-9.51,15.19-13.44,15.74h-.13c-2.25-.16-31.87-2.44-29.28-12.84,0,0,1.45-6.86,7.31-19.44,1.6-3.47,3.54-7.36,5.88-11.66,0,0,27.38-50.7,30.76-73.69l4.39-23.66s5.9-32.66,20.36-36.53a10.7,10.7,0,0,1,1.37-.27c15.46-2.08,55.33-6.14,55.33-6.14s-.83-3.72,8,1.86c0,0,13.18,5.58,25.36,6.59,0,0,18.5,1,30.17,20.8l45.38,81.63S509.59,346.43,500.71,359.87Z" fill="#d600f2" data-primary="true"/>
<path d="M389.82,222.45C386.18,240.61,358,285.86,358,285.86c-8.66-19.27-12-56-12-56,20.07-.34,25.27-20.77,25.27-20.77a23.46,23.46,0,0,0,3.85-3.36c1.75-1.81,3.16-3.52,3.16-3.52C379.14,212.78,389.82,222.45,389.82,222.45Z" fill="#f9b499"/>
<path d="M389.77,222.69C385.92,241,358,285.86,358,285.86c-8.66-19.27-12-56-12-56,20.38-.72,25.27-20.77,25.27-20.77a23.46,23.46,0,0,0,3.85-3.36s-.31,21-18.23,30.46a5.69,5.69,0,0,0-3.09,4.6c-.61,7.73-1.41,27.11,4.77,36.38,0,0,20-31.36,31.18-54.52C389.72,222.64,389.78,222.66,389.77,222.69Z" fill="#f7a48b"/>
<path d="M325,343.9s-20.62,59.5-32.8,61.19h-.13L269.14,389s1-3.55,13.63-3.3c0,0,.89.06,2.36.06a25.7,25.7,0,0,0,25.38-24.39l4.25-79.16s6.54,9.45,6.78,34.9C321.54,317.12,319.23,338.42,325,343.9Z" opacity="0.2"/>
<path d="M271.57,387.11s-7.47,1.26-8.92,6.59a8.3,8.3,0,0,0,4.46,5.61l2-10.3Z" opacity="0.2"/>
<path d="M406.94,424.81s21.48-18.13,36-13.65c0,0,18.13,8,27.53,3.13l18.35-9.2s-4.6-15.69-5.88-19.36l-20.31,20.73s-13.87-4.93-21.93-11.86c0,0-15.57,6.9-25.54,12.5A40,40,0,0,0,405,415.36l-4.61,5.15Z" opacity="0.2"/>
<path d="M364.73,448.36s6,.63,13.65-8.63a41.63,41.63,0,0,1,11.16-9.25l13.69-8.24-2.89-1.73H389S363.12,445.07,364.73,448.36Z" fill="#f2927c"/>
<path d="M456.37,346.37s-35.12,24.06-34.7,30.34c0,0-20.86,13.76-28.39,19.23,0,0-19.53,2-34.27,7.56-3.35-1-6.6-1.94-9.69-2.78h0c-.23-4.29-1.16-18.23-3.71-29.65,0,0,0-.05,0-.08-1.12-5-2.54-9.43-4.33-12.44,0,0,77.39-9.3,86.32-30.91,0,0,4-6.91-3.17-22.19,0,0-3.46-8.08-2-16.43C422.37,289,448.88,328.21,456.37,346.37Z" opacity="0.2"/>
<path d="M422.36,289s7.45,24.11,17.5,39.91c0,0,10.06,15.6-6.56,30.78,0,0-16.38,12.12-11.63,17,0,0-.49-4.35,15.91-16.51l18.8-13.82s8.11-8.83,22.48-4.52c0,0-8.52-9.46-24.14.79C454.72,342.64,437.91,311.08,422.36,289Z" fill="#d600f2" data-primary="true"/>
<path d="M422.36,289s7.45,24.11,17.5,39.91c0,0,10.06,15.6-6.56,30.78,0,0-16.38,12.12-11.63,17,0,0-.49-4.35,15.91-16.51l18.8-13.82s8.11-8.83,22.48-4.52c0,0-8.52-9.46-24.14.79C454.72,342.64,437.91,311.08,422.36,289Z" opacity="0.32"/>
<path d="M358,285.86a63,63,0,0,1-5.41,6.14,48.09,48.09,0,0,1-6.27,5.35c-.55.41-1.17.74-1.76,1.11l-1.78,1a3,3,0,0,0-1.38,2.8l1.42,8c1,5.35,1.88,10.72,2.82,16.07l2.7,16a30.59,30.59,0,0,0,7.95,13.32l1.44,1.35c.49.43,1,.83,1.52,1.25,1.07.83,2.2,1.73,3.21,2.69a25,25,0,0,1,5.14,6.69,42.59,42.59,0,0,1,4.57,15.87,63.42,63.42,0,0,1-.7,16.35c.18-2.72.3-5.43.25-8.14a60.32,60.32,0,0,0-.7-8.07,43.35,43.35,0,0,0-5-15.12,24.78,24.78,0,0,0-4.93-6.06c-1-.89-2-1.67-3.1-2.49-.55-.44-1.12-.85-1.66-1.31l-1.57-1.41a33,33,0,0,1-5.25-6.58,30,30,0,0,1-3.42-7.76l-.06-.27a2.6,2.6,0,0,1-.07-.31l-.08-.5-.16-1-.32-2-.64-4-1.28-8.07c-.81-5.38-1.66-10.76-2.43-16.15l-.59-4-.3-2-.14-1c0-.33-.1-.66-.12-1.09a4.43,4.43,0,0,1,2.24-4.06l1.86-.88c.58-.33,1.18-.62,1.74-1A62.71,62.71,0,0,0,358,285.86Z" fill="#d600f2" data-primary="true"/>
<path d="M358,285.86a63,63,0,0,1-5.41,6.14,48.09,48.09,0,0,1-6.27,5.35c-.55.41-1.17.74-1.76,1.11l-1.78,1a3,3,0,0,0-1.38,2.8l1.42,8c1,5.35,1.88,10.72,2.82,16.07l2.7,16a30.59,30.59,0,0,0,7.95,13.32l1.44,1.35c.49.43,1,.83,1.52,1.25,1.07.83,2.2,1.73,3.21,2.69a25,25,0,0,1,5.14,6.69,42.59,42.59,0,0,1,4.57,15.87,63.42,63.42,0,0,1-.7,16.35c.18-2.72.3-5.43.25-8.14a60.32,60.32,0,0,0-.7-8.07,43.35,43.35,0,0,0-5-15.12,24.78,24.78,0,0,0-4.93-6.06c-1-.89-2-1.67-3.1-2.49-.55-.44-1.12-.85-1.66-1.31l-1.57-1.41a33,33,0,0,1-5.25-6.58,30,30,0,0,1-3.42-7.76l-.06-.27a2.6,2.6,0,0,1-.07-.31l-.08-.5-.16-1-.32-2-.64-4-1.28-8.07c-.81-5.38-1.66-10.76-2.43-16.15l-.59-4-.3-2-.14-1c0-.33-.1-.66-.12-1.09a4.43,4.43,0,0,1,2.24-4.06l1.86-.88c.58-.33,1.18-.62,1.74-1A62.71,62.71,0,0,0,358,285.86Z" opacity="0.3"/>
<path d="M394.67,226.51c-1.75,4.6-3.67,9.13-5.64,13.64s-4,9-6.12,13.44-4.31,8.85-6.61,13.21-4.69,8.66-7.29,12.85l6.47-13.26c2.13-4.43,4.28-8.85,6.36-13.31l6.37-13.3,3.2-6.65Z" opacity="0.2"/>
<path d="M304.37,194.9s-.6,5-6.48,5.36c0,0,5.54-10-2.77-22.17,0,0-10.22-11.19,4.58-24.59-2.33,6.89.53,10.69.53,10.69A65.39,65.39,0,0,0,304.37,194.9Z" opacity="0.2"/>
<ellipse cx="438.9" cy="489.15" rx="50.78" ry="43.96" fill="#f9b499"/>
<path d="M410.15,451.85s-14.39,10.7-16,27.37c0,0-1.12,18.13-3.39,25.84,0,0,17.94,39.24,66.37,24.86,0,0,27.24-7.4,14.9-48.42,0,0,.16,49.76-27.39,42.4,0,0-43.84-7.91-45.8-31.43,0,0-2-22.08,15.72-38.8,0,0-2.22-2.22-2-4.07Z" fill="#f7a48b"/>
<path d="M518.71,568.5a45.92,45.92,0,0,1,5.59.29c1.87.17,3.72.42,5.58.68a91.14,91.14,0,0,1,11,2.23,95,95,0,0,1-11.2-1.06c-1.85-.28-3.69-.58-5.53-.94S520.46,568.91,518.71,568.5Z" fill="#f2927c"/>
<path d="M542.67,577.78c-4.54.06-9-.23-13.55-.62a133.13,133.13,0,0,1-13.45-1.79c4.54-.06,9.05.23,13.55.62S538.21,576.91,542.67,577.78Z" fill="#f2927c"/>
<path d="M525.05,591.1c-1.57,1.07-4.6,1.44-10.4-1.79,0,0-5.57-4.68-10.89-4.43,0,0-14.63,2.91-25.11-1a18.31,18.31,0,0,0-11,2.36s-41.75,18-68.88,23.58c0,0-50.79,18.51-56.88,0,0,0-2.08-1-3.27-14.1.33,1.2,7,23.75,38.6,14.86L453,587.93a37.82,37.82,0,0,0,5.16-2c4.52-2.12,15.31-6.38,23.5-3.31a19.18,19.18,0,0,0,6.1,1.11,55.32,55.32,0,0,0,12.84-.86,15.53,15.53,0,0,1,14.92,4.58l.17.19S521,591,525.05,591.1Z" fill="#f7a48b"/>
<path d="M379.25,556.61s-3.76,16.08-10.26,25c0,0-3.15,3.57-2.36,8.1,0,0,6.4-9.39,13.83-9.71C380.46,580,378.16,567.54,379.25,556.61Z" fill="#f7a48b"/>
<path d="M519,463.13a23,23,0,0,1-6.19,15.9,19,19,0,0,1-13.89,6.14c-11.1,0-20.08-9.86-20.08-22,0-11.46,7.95-20.87,18.13-21.94a15.71,15.71,0,0,1,1.95-.11C510,441.08,519,451,519,463.13Z" fill="#5e5e5e" data-secondary="true"/>
<path d="M512.83,479a19,19,0,0,1-13.89,6.14c-11.1,0-20.08-9.86-20.08-22,0-11.46,7.95-20.87,18.13-21.94C494.69,451.64,493.37,471.28,512.83,479Z" opacity="0.2"/>
<path d="M376.28,627c3,2.13,6.76,2.85,10.36,3a39.45,39.45,0,0,0,10.82-1.14,73.62,73.62,0,0,0,10.4-3.34c3.34-1.44,6.67-3,10-4.54,6.7-3,13.37-6.08,20.09-9L448,607.52c3.38-1.44,6.74-2.91,10.14-4.32-3.29,1.65-6.6,3.23-9.9,4.85l-9.95,4.74c-6.63,3.14-13.31,6.19-20,9.29-3.34,1.52-6.69,3-10.1,4.47a63.6,63.6,0,0,1-10.61,3.22,39.41,39.41,0,0,1-11,.83C383,630.23,379.16,629.35,376.28,627Z" opacity="0.2"/>
<path d="M252.51,360.08a62,62,0,0,1-7.62-7.74S212.05,346,192,382.15c0,0-4.64,6.21-8.14,29.61,0,0-1.46,8.88-5.51,15.3,0,0-8.46,19.94-40.57,27.38L98.86,466.27,86.77,437.76c-8.31-27.54-8-47.9-8-47.9-2.66-59.53,16.84-96.76,31.92-116.37,4.48,4.32,25.13,22.7,62.64,33.16,0,0,38.74,3,67.2,31.78,0,0,6.75,5.43,10.43,11.52a3,3,0,0,1,.17.29c.16.27.31.53.45.8a.47.47,0,0,0,.05.1C253.28,354.23,254,357.41,252.51,360.08Z" fill="#d600f2" data-primary="true"/>
<path d="M252.52,360.08a62.8,62.8,0,0,1-7.62-7.74S212.05,346,192,382.15c0,0-4.64,6.21-8.14,29.61,0,0-1.45,8.87-5.51,15.3,0,0-8.46,19.93-40.57,27.38L98.86,466.27l-1.66-3.93s53.7-11.75,73-30.4a28.82,28.82,0,0,0,5.91-8.34,81.34,81.34,0,0,0,7.31-27s6.43-44.62,55.1-48c0,0,8.27-.9,12.51,1.32,0,0,.07.1.18.29s.27.46.44.8l.05.1A13.09,13.09,0,0,1,252.52,360.08Z" opacity="0.2"/>
<polygon points="674.89 68.35 674.89 383.68 664.75 383.68 664.75 48.11 674.89 68.35" fill="#d600f2" data-primary="true"/>
<path d="M664.75,48.11s1.33,23,7.78,27a2.11,2.11,0,0,0,2.91-.6C677,72.2,677.87,65.58,664.75,48.11Z" fill="#5e5e5e" data-secondary="true"/>
<rect x="664.75" y="130.14" width="10.14" height="12.67" opacity="0.2"/>
<rect x="664.75" y="215.9" width="10.14" height="12.66" opacity="0.2"/>
<rect x="664.75" y="324.33" width="10.14" height="12.67" opacity="0.2"/>
<polygon points="718.26 103.77 718.26 383.69 708.12 383.69 708.12 85.8 718.26 103.77" fill="#d600f2" data-primary="true"/>
<path d="M708.12,85.8s1.24,19.71,7.22,23.18a2.07,2.07,0,0,0,2.7-.51C719.46,106.46,720.28,100.79,708.12,85.8Z" fill="#5e5e5e" data-secondary="true"/>
<rect x="708.12" y="158.62" width="10.14" height="11.25" opacity="0.2"/>
<rect x="708.12" y="234.75" width="10.14" height="11.24" opacity="0.2"/>
<rect x="708.12" y="331" width="10.14" height="11.25" opacity="0.2"/>
<polygon points="635.12 186.68 635.12 383.69 645.26 383.69 645.26 174.03 635.12 186.68" fill="#d600f2" data-primary="true"/>
<path d="M645.26,174S644,187.9,638,190.34a2.65,2.65,0,0,1-2.69-.36C633.92,188.57,633.1,184.58,645.26,174Z" fill="#5e5e5e" data-secondary="true"/>
<rect x="635.12" y="225.28" width="10.14" height="7.92" opacity="0.2"/>
<rect x="635.12" y="278.86" width="10.14" height="7.91" opacity="0.2"/>
<rect x="635.12" y="346.6" width="10.14" height="7.92" opacity="0.2"/>
<path d="M653.9,332.58c0,4.57-8.37,8.26-18.7,8.26-8.25,0-15.26-2.36-17.73-5.64a4.26,4.26,0,0,1-1-2.62c0-4.55,8.36-8.25,18.69-8.25,7.77,0,14.41,2.09,17.24,5.05A4.65,4.65,0,0,1,653.9,332.58Z" fill="#5e5e5e" data-secondary="true"/>
<path d="M660.64,348.33c0,6.47-11.74,11.71-26.22,11.71-8.85,0-16.67-2-21.41-5-3-1.9-4.79-4.23-4.79-6.75,0-6.47,11.73-11.71,26.2-11.71,11.87,0,21.89,3.51,25.11,8.34h0A6,6,0,0,1,660.64,348.33Z" fill="#5e5e5e" data-secondary="true"/>
<path d="M664.75,368.73c0,7.84-14.34,14.21-32,14.21-12.94,0-24.1-3.41-29.14-8.32a8.26,8.26,0,0,1-2.88-5.89c0-7.85,14.33-14.21,32-14.21,13.78,0,25.54,3.87,30.06,9.29A7.67,7.67,0,0,1,664.75,368.73Z" fill="#5e5e5e" data-secondary="true"/>
<path d="M674.89,389.86c0,9.76-18.43,17.69-41.15,17.69-14.83,0-27.83-3.37-35.07-8.44-3.86-2.7-6.08-5.87-6.08-9.25,0-9.77,18.42-17.69,41.15-17.69,17.63,0,32.66,4.77,38.52,11.47A9.41,9.41,0,0,1,674.89,389.86Z" fill="#5e5e5e" data-secondary="true"/>
<path d="M674.89,389.86c0,9.76-18.43,17.69-41.15,17.69-14.83,0-27.83-3.37-35.07-8.44,18.34-.23,62.3-2.22,73.59-15.47A9.41,9.41,0,0,1,674.89,389.86Z" opacity="0.2"/>
<path d="M664.75,368.73c0,7.84-14.34,14.21-32,14.21-12.94,0-24.1-3.41-29.14-8.32,13,.81,43.79,1.28,59.2-10.81A7.67,7.67,0,0,1,664.75,368.73Z" opacity="0.2"/>
<path d="M660.64,348.33c0,6.47-11.74,11.71-26.22,11.71-8.85,0-16.67-2-21.41-5,0,0,37.57,2.71,46.52-10.12h0A6,6,0,0,1,660.64,348.33Z" opacity="0.2"/>
<path d="M653.9,332.58c0,4.57-8.37,8.26-18.7,8.26-8.25,0-15.26-2.36-17.73-5.64,0,0,25.26,4.72,35-5.82A4.65,4.65,0,0,1,653.9,332.58Z" opacity="0.2"/>
<path d="M412.87,186.13A18.19,18.19,0,1,1,394.67,168,18.08,18.08,0,0,1,412.87,186.13Z" fill="#5e5e5e" data-secondary="true"/>
<path d="M411.78,192.33v0a18.19,18.19,0,0,1-33,2.63l6.77-7.56S398.2,204,411.78,192.33Z" opacity="0.2"/>
<ellipse cx="336.46" cy="183.3" rx="34.09" ry="48.56" transform="translate(-45.1 148.46) rotate(-23.36)" fill="#f9b499"/>
<path d="M371.23,209.12s3.63-12.24,1-23l-9.92-11s-11.06,1.21-17.3-13.33c0,0,1.7,21.29,15.91,19.64,0,0-10.57,7.21-22-6.74a32.78,32.78,0,0,1-4.9-8.46c-1.34-3.24-4.26-8.36-9.8-10,.28.3,4.56,5.16,6.23,15.23,0,0,2.08,10.74,10.74,13.86,0,0-10.74,2.08-17-13.86a39.93,39.93,0,0,0-4.36-8.13c-4.25-6-11.28-11.18-19.61.81a65.74,65.74,0,0,0,4.14,30.71s-.6,5-6.48,5.36c0,0,5.54-10-2.77-22.17,0,0-10.22-11.19,4.58-24.59,0,0,.61-21.47,41.82-24.58,0,0,43,1.05,45,40.52C386.54,169.44,391.23,193.74,371.23,209.12Z" fill="#5e5e5e" data-secondary="true"/>
<path d="M319.84,163.38c-4.25-6-11.28-11.18-19.61.81C300.23,164.19,310.13,140.3,319.84,163.38Z" opacity="0.2"/>
<path d="M360.9,181.46s-10.57,7.21-22-6.74a32.78,32.78,0,0,1-4.9-8.46c-1.34-3.24-4.26-8.36-9.8-10,0,0,8.11-3.3,16.19,14.49C340.4,170.77,346.55,183.61,360.9,181.46Z" opacity="0.2"/>
<ellipse cx="370.1" cy="181.46" rx="9.19" ry="12.02" fill="#f9b499"/>
<ellipse cx="370.1" cy="181.46" rx="2.87" ry="4.5" fill="#f7a48b"/>
<path d="M368.59,432.79a72,72,0,0,0-4.72,7.86,19.61,19.61,0,0,1-14.65,7.61c1.83-.16,5.28-1.55,10.9-7.64Z" fill="none"/>
<path d="M272.78,425.1s11.28,1.71,24.42,11.37c0,0,21.47,8.16,17.38,13.24-2.71,3.35-.63,1.41-.63,1.41l-28.38-5.93Z" fill="#f2927c"/>
<path d="M313.58,489a2.58,2.58,0,0,1-3.28-.2l-18.4-17.18a.21.21,0,0,0-.33.24l4,9.6,7.43,6.09c4.85,4.85,3.08,8,1.47,9.45A1.81,1.81,0,0,1,302,497l-8.74-9c3.38,17.58-9.14,0-9.14,0-6.75.33-7.77-6.77-7.77-6.77L264.5,446.66c-3.72-12.5-1.85-26-1.85-26l5.81-28.35.68-3.28a.82.82,0,0,1,.59-.63c12.07-3.25,20.7,4.32,24.17,8.19a3.8,3.8,0,0,1,.53,4.32l-13.69,26.16h0c3,1.69,16.9,13.52,16.9,13.52a34.43,34.43,0,0,0,15.11,7.15l.72.12a1.43,1.43,0,0,1,1.12,1.86,6.55,6.55,0,0,1-4.64,4.38,10,10,0,0,1-7.44-.69,30.72,30.72,0,0,0-6.3-2.35c-.82-.2-1.38-.29-1.55-.32h-.06c2.48,4.72,3.88,12.56,4.43,16.37a6.13,6.13,0,0,0,2.07,3.75l10.4,9C316.32,485.25,315.15,487.84,313.58,489Z" fill="#f9b499"/>
<path d="M294.43,400.89l-13.68,26.16h0s-5.75-1.69,1-16.4c0,0,11.31-18.33-13.28-18.37l.68-3.28a.81.81,0,0,1,.59-.63c12.07-3.25,20.71,4.32,24.17,8.19A3.78,3.78,0,0,1,294.43,400.89Z" fill="#f7a48b"/>
<path d="M284.11,487.91a16.42,16.42,0,0,1-2.68-3.79,16.06,16.06,0,0,1-1.63-4.34,15.87,15.87,0,0,1,2.67,3.79A16.29,16.29,0,0,1,284.11,487.91Z" fill="#f7a48b"/>
<path d="M293.24,487.92a14.81,14.81,0,0,1-3.69-2.86,19.93,19.93,0,0,1-2.84-3.74,18.94,18.94,0,0,1-1.87-4.31,16.43,16.43,0,0,1-.73-4.6c.51,1.47,1,2.9,1.6,4.29a31.47,31.47,0,0,0,2,4,33.52,33.52,0,0,0,2.52,3.74A38.78,38.78,0,0,0,293.24,487.92Z" fill="#f7a48b"/>
<path d="M294.59,450.72s-5.85-6.35-4.35,0l9.43,18.33S297.43,455.15,294.59,450.72Z" fill="#f7a48b"/>
<path d="M314.58,449.71a6.55,6.55,0,0,1-4.64,4.38,10,10,0,0,1-7.44-.69,30.72,30.72,0,0,0-6.3-2.35c8.81,1.66,13.93-1.06,16.54-3.32l.72.12A1.43,1.43,0,0,1,314.58,449.71Z" fill="#f7a48b"/>
<path d="M389.32,414.78c-8.07,9.32-22.83,26.52-23.07,27.77-2.21,11.79-7.34,4.33-7.34,4.33-9.73,7.85-17.68-6.24-17.68-6.24s14.21-1.72-1.33-.12-11-13.46-11-13.46c-15.67-7.68,25.53-24.91,25.53-24.91,1.5.43,3,.88,4.57,1.35-.36.13-.71.26-1.05.41,6.22,1.49,11.91,3.17,17.09,5a2.65,2.65,0,0,0,.3.11C380.06,410.74,384.77,412.67,389.32,414.78Z" fill="#f2927c"/>
<path d="M440.73,394.59l-28,14c-5.77,3.32-12.37,11.9-12.37,11.9a100.53,100.53,0,0,1-15.12,8.57,23.9,23.9,0,0,0-10.46,9.17,21.78,21.78,0,0,1-1.8,2.66,33.64,33.64,0,0,1-5.6,6c-3.24,2.51-4.49,1.38-4.49,1.38-1.71-1-.65-4.28,1-7.61a72,72,0,0,1,4.72-7.86l-8.47,7.83c-5.62,6.09-9.07,7.48-10.9,7.64h-.39a2.37,2.37,0,0,1-1.25-.27c-5.75-2.38,12.91-23.38,13.42-24l-.1.05-14,8.17c-11.91,7.48-14.71,5.46-14.71,5.46a3.64,3.64,0,0,1-1.57-1.47c-1.5-2.87,4.66-6.28,4.66-6.28,17.9-10.07,21-16.34,21-16.34-1.46.93-2.85,1.8-4.17,2.58l-.08.05c-18.87,11.29-23.95,8.56-23.95,8.56a1.94,1.94,0,0,1-.73-1.07c-1.1-4.24,14.67-11.81,20.65-14.51A27.79,27.79,0,0,0,352,407c12.71-8.44,41.29-11.09,41.29-11.09l28-19.7a0,0,0,0,0,0,0C427.12,382.93,440.73,394.59,440.73,394.59Z" fill="#f9b499"/>
<path d="M363.87,440.65a72,72,0,0,1,4.72-7.86l-8.47,7.83c-5.62,6.09-9.07,7.48-10.9,7.64h-.39l12.85-18.21a12.2,12.2,0,0,1,15.43-3.88h0Z" fill="#f7a48b"/>
<path d="M440.73,394.59l-28,14c-5.78,3.32-12.38,11.89-12.38,11.89a100.06,100.06,0,0,1-15.12,8.58,24.17,24.17,0,0,0-10.38,9,28.15,28.15,0,0,1-1.78,2.67,34.19,34.19,0,0,1-5.69,6.1h0c.9-10.85,16.59-19.82,16.59-19.82,5.49-3.09,9.85-6,12.69-7.94a23.42,23.42,0,0,0,5.09-4.69c6.66-8.47,21.8-15.14,21.8-15.14a13.64,13.64,0,0,0,3.41-2.57,6.83,6.83,0,0,0,.08-9.28c-3.42-3.7-5.09-8.87-5.58-10.6a.14.14,0,0,1,.24-.14C427.7,383.42,440.73,394.59,440.73,394.59Z" fill="#f7a48b"/>
<path d="M363,421.88c-.11.12-.83.92-2.06,2.2l-14,8.17c-11.91,7.48-14.71,5.46-14.71,5.46a3.64,3.64,0,0,1-1.57-1.47C336.37,434.12,356.2,426.61,363,421.88Z" fill="#f7a48b"/>
<path d="M356.36,413.62l-4.17,2.58-.08.05c-18.87,11.29-23.95,8.56-23.95,8.56a1.94,1.94,0,0,1-.73-1.07C330.7,423.37,339.47,421.63,356.36,413.62Z" fill="#f7a48b"/>
<path d="M492,514.19c-.26.37-.51.74-.77,1.1-17.12,24.21-34.18,14.63-34.18,14.63,12.58-2.83,16.63-19,16.63-19,6.1-29.13-12.92-49.34-12.92-49.34-13.62-2.34-17.15-8.45-17.15-8.45-1.77-6.45-8.18-5.61-12-4.44a13.22,13.22,0,0,0-4.47,2.42c-6.6,5.3-11.46,3.35-11.46,3.35-7.56-3.44,0-9.26,0-9.26,6.68-7,15.46-9.58,19.25-10.4a17.25,17.25,0,0,1,3.2-.37,68.67,68.67,0,0,1,23.53,3.32h0c29,9.73,34.82,37.46,34.82,37.46C503.79,493.74,492,514.19,492,514.19Z" fill="#5e5e5e" data-secondary="true"/>
<path d="M491.27,515.29c-17.12,24.21-34.18,14.63-34.18,14.63,12.58-2.83,16.63-19,16.63-19,6.1-29.13-12.92-49.34-12.92-49.34-13.62-2.34-17.15-8.45-17.15-8.45-1.77-6.45-8.18-5.61-12-4.44a13.22,13.22,0,0,0-4.47,2.42c-6.6,5.3-11.46,3.35-11.46,3.35-7.32-3.68,0-9.26,0-9.26,6.68-7,15.46-9.58,19.25-10.4a17.25,17.25,0,0,1,3.2-.37,68.67,68.67,0,0,1,23.53,3.32c-6.79,3.53-14.85,9.38-9.1,15.38,0,0,29.27,16.48,24,47.21,0,0-5.16,21.14,2.36,19.73C478.89,520.05,482.18,521.44,491.27,515.29Z" opacity="0.2"/>
<path d="M440.73,464.54s-12.81,0-13.58-13.45c0,0,12.51-3.42,16.86,10.17C444,461.26,441.32,461,440.73,464.54Z" fill="#d600f2" data-primary="true"/>
<path d="M435.86,463.56s-8.79,1.13-8.71,11.87c0,0,11.32,3.34,16-7.61a3.2,3.2,0,0,1-2.38-3.28A19.76,19.76,0,0,1,435.86,463.56Z" fill="#d600f2" data-primary="true"/>
<path d="M439.61,472.86s-.82,9,7.68,12.31c.07,0,10-8.9-.54-18.83a3.6,3.6,0,0,1-3.64,1.48A18.66,18.66,0,0,1,439.61,472.86Z" fill="#d600f2" data-primary="true"/>
<path d="M442.7,458.1s-2-9.45,8.18-12.91c0,0,7.56,9.47-3.59,18.37,0,0-1.61-2.74-3.28-2.3C444,461.26,443.08,458.78,442.7,458.1Z" fill="#d600f2" data-primary="true"/>
<path d="M449.51,469.73s10.51,5.46,16.33-3.39c0,0-4.15-9.6-15.46-5.8,0,0-2.05,2.17-3.09,3a5.57,5.57,0,0,1-.54,2.78S448.68,468.5,449.51,469.73Z" fill="#d600f2" data-primary="true"/>
<circle cx="444.01" cy="464.54" r="3.55" fill="#d600f2" data-primary="true"/>
<circle cx="444.01" cy="464.54" r="3.56" opacity="0.2"/>
<path d="M244.9,352.34a91.52,91.52,0,0,0,7.62,7.74S252.84,351.49,244.9,352.34Z" opacity="0.2"/>
<circle cx="575.24" cy="222.96" r="26.12" fill="#fff" opacity="0.12"/>
<rect x="562.9" y="229.84" width="24.02" height="28.27" fill="#fff"/>
<path d="M575.28,229.22s-5.08-2.42-5.25-7.9S574.9,211,574.9,211a15.37,15.37,0,0,1,4.36,8.2C580,224.06,575.28,229.22,575.28,229.22Z" fill="#d600f2" data-primary="true"/>
<rect x="550.44" y="255.66" width="50.76" height="12.46" fill="#5e5e5e" data-secondary="true"/>
<circle cx="488.85" cy="126.95" r="26.12" fill="#fff" opacity="0.12"/>
<rect x="476.51" y="133.83" width="24.02" height="28.27" fill="#fff"/>
<path d="M488.88,133.21s-5.07-2.42-5.24-7.9S488.5,115,488.5,115a15.39,15.39,0,0,1,4.37,8.2C493.61,128.05,488.88,133.21,488.88,133.21Z" fill="#d600f2" data-primary="true"/>
<rect x="464.05" y="159.66" width="50.76" height="12.46" fill="#5e5e5e" data-secondary="true"/>
<circle cx="236.06" cy="246.15" r="26.12" fill="#fff" opacity="0.12"/>
<rect x="223.72" y="253.02" width="24.02" height="28.27" fill="#fff"/>
<path d="M236.09,252.41S231,250,230.85,244.5s4.87-10.33,4.87-10.33a15.37,15.37,0,0,1,4.36,8.2C240.83,247.25,236.09,252.41,236.09,252.41Z" fill="#d600f2" data-primary="true"/>
<rect x="211.26" y="278.85" width="50.76" height="12.46" fill="#5e5e5e" data-secondary="true"/>
<path d="M724.87,421.63s-5-5.91-16.93-9.46A43.06,43.06,0,0,0,686.5,411s4.74-10.65,18.28-8.81,19.18,7,20.32,11.74A12.61,12.61,0,0,1,724.87,421.63Z" fill="#d600f2" data-primary="true"/>
<path d="M724.87,421.63s-5-5.91-16.93-9.46A43.06,43.06,0,0,0,686.5,411s4.74-10.65,18.28-8.81,19.18,7,20.32,11.74A12.61,12.61,0,0,1,724.87,421.63Z" opacity="0.2"/>
<path d="M727.58,421.63s12.64-9.46,23.46-11.73,18.28,1.18,18.28,1.18-6.31-7.45-20.76-9S726.45,418.7,727.58,421.63Z" fill="#d600f2" data-primary="true"/>
<path d="M727.58,421.63s12.64-9.46,23.46-11.73,18.28,1.18,18.28,1.18-6.31-7.45-20.76-9S726.45,418.7,727.58,421.63Z" opacity="0.2"/>
<path d="M729.16,411.48s3.55-6.32-7.45-14.89-19.86-6.55-25-5.2a34.3,34.3,0,0,0-9.25,4.07s11.72,3.84,21,7.67,18.06,14.2,18.06,14.2Z" fill="#d600f2" data-primary="true"/>
<path d="M728,416.21S731,398,735.47,395s10.65-3.16,17.39-.91,13.08,5,13.08,5-12.19-1.81-20.11,2.94S728,416.21,728,416.21Z" fill="#d600f2" data-primary="true"/>
<path d="M727.75,414.13c-.08-.29-8.16-29.44-9-70.11-.9-41.15,16.87-43.2,17.62-43.27l.11,1.18c-.18,0-17.42,2.14-16.55,42.06.89,40.52,8.93,69.53,9,69.82Z" fill="#5e5e5e" data-secondary="true"/>
<path d="M727.49,416.26c0-.31-2.53-31.47-1.18-57.84,1.36-26.66,14.43-33.82,15-34.12l.55,1.05c-.13.07-13,7.2-14.35,33.13-.92,18,0,38.28.62,49.36.93-10.88,3-29.91,6.85-41.9,5.7-17.79,13.51-18.45,13.84-18.46l.07,1.18c-.07,0-7.37.74-12.78,17.64-5.56,17.33-7.4,49.62-7.42,49.95Z" fill="#5e5e5e" data-secondary="true"/>
<path d="M753.78,320c3.55-5.41,0-8.9-5.4-5.4-1.35-6.31-6.28-6.31-7.63,0-5.41-3.55-8.9,0-5.38,5.4-6.31,1.34-6.31,6.28,0,7.63-3.55,5.4,0,8.89,5.38,5.39,1.35,6.3,6.28,6.3,7.63,0,5.41,3.55,8.9,0,5.4-5.39C760.08,326.31,760.08,321.37,753.78,320Z" fill="#fff"/>
<circle cx="744.57" cy="323.83" r="2.6" fill="#d600f2" data-primary="true"/>
<path d="M762.63,344.11c3.55-5.4,0-8.89-5.4-5.39-1.35-6.3-6.28-6.3-7.63,0-5.41-3.55-8.9,0-5.39,5.39-6.3,1.35-6.3,6.29,0,7.64-3.55,5.4,0,8.89,5.39,5.39,1.35,6.29,6.28,6.29,7.63,0,5.41,3.55,8.9,0,5.4-5.39C768.87,350.4,768.87,345.46,762.63,344.11Z" fill="#fff"/>
<circle cx="753.36" cy="347.92" r="2.6" fill="#d600f2" data-primary="true"/>
<path d="M748.57,295.94c3.55-5.41,0-8.9-5.39-5.4-1.35-6.3-6.29-6.3-7.63,0-5.41-3.55-8.9,0-5.4,5.4-6.29,1.35-6.29,6.28,0,7.63-3.55,5.4,0,8.89,5.4,5.38,1.34,6.31,6.28,6.31,7.63,0,5.4,3.55,8.89,0,5.39-5.38C754.87,302.22,754.87,297.29,748.57,295.94Z" fill="#fff"/>
<circle cx="739.36" cy="299.75" r="2.6" fill="#d600f2" data-primary="true"/>
<path d="M728.62,416.26l-1.18-.09a446.69,446.69,0,0,0,.91-52.26c-1.27-25.88-8.9-35.69-9-35.79l.93-.74c.32.41,7.94,10.21,9.23,36.48A444.7,444.7,0,0,1,728.62,416.26Z" fill="#5e5e5e" data-secondary="true"/>
<path d="M729,323.93c3.55-5.41,0-8.9-5.4-5.4-1.35-6.29-6.28-6.29-7.63,0-5.41-3.54-8.9,0-5.39,5.4-6.3,1.35-6.3,6.28,0,7.63-3.55,5.41,0,8.9,5.39,5.4,1.35,6.29,6.28,6.29,7.63,0,5.41,3.55,8.9,0,5.4-5.4C735.33,330.21,735.33,325.28,729,323.93Z" fill="#fff"/>
<path d="M722.4,327.75a2.62,2.62,0,1,0-2.63,2.6h0A2.61,2.61,0,0,0,722.4,327.75Z" fill="#d600f2" data-primary="true"/>
<rect x="700.95" y="415.6" width="52.8" height="16.24" fill="#5e5e5e" data-secondary="true"/>
<rect x="743.22" y="415.6" width="10.53" height="16.24" fill="#5e5e5e" data-secondary="true"/>
<rect x="743.22" y="415.6" width="10.53" height="16.24" opacity="0.2"/>
<rect x="528.4" y="400.77" width="7.22" height="4.97" fill="#fff"/>
<path d="M548.36,435.35l-8.44-8.86a14.86,14.86,0,0,1-4.07-10.21v-9.47h-8.12v9.47a14.77,14.77,0,0,1-4.09,10.21l-8.43,8.86a2.9,2.9,0,0,0,2.1,4.9h29a2.9,2.9,0,0,0,2.1-4.9Z" fill="#fff"/>
<path d="M539.92,426.49a16.17,16.17,0,0,1-1.12-1.36h-14a12.16,12.16,0,0,1-1.13,1.36l-8.43,8.86a2.9,2.9,0,0,0,2.1,4.9h29a2.9,2.9,0,0,0,2.1-4.9Z" fill="#d600f2" data-primary="true"/>
<rect x="526.38" y="404.6" width="11.06" height="4.28" rx="1.21" fill="#5e5e5e" data-secondary="true"/>
</svg>